<svg width="269" height="66" viewBox="0 0 269 66" fill="none" xmlns="http://www.w3.org/2000/svg">
<g clip-path="url(#clip0_148_1550)">
<path fill-rule="evenodd" clip-rule="evenodd" d="M53.5172 31.7619L44.8835 34.6045C43.0556 35.1047 41.7512 36.3916 41.21 38.1758L38.5864 46.6168C38.3321 47.6434 36.5042 47.9037 36.2468 46.6168L33.3689 38.1758C32.8306 36.6403 31.2571 35.3621 29.6954 34.6045L21.0617 32.0395C20.0117 31.7619 19.7455 29.9748 21.0617 29.7261L29.6954 26.9124C31.5233 26.4121 32.8277 25.1253 33.3689 23.3208L35.9925 14.8798C36.2468 13.8705 38.0747 13.5929 38.3321 14.8798L41.21 23.3208C41.7483 25.134 43.0645 26.4121 44.8835 26.9124L53.5172 29.4774C54.5672 29.7261 54.8245 31.5132 53.5172 31.7648V31.7619Z" fill="white"/>
<path d="M71.9339 32.8158C72.0562 32.7818 72.1784 32.7513 72.3007 32.7207C73.0173 32.5373 73.6387 32.3777 74.2127 31.9159C74.5896 31.6136 74.9768 31.0872 74.9428 30.5303C74.9122 30.0209 74.5523 29.6134 74.3383 29.413C73.7474 28.8628 73.1056 28.6998 72.3652 28.5165C71.9102 28.401 71.4381 28.2855 70.9423 28.0682C69.825 27.5826 68.8232 26.7641 67.964 25.6366C66.5852 23.8266 65.8857 21.6395 65.8245 18.9431C65.8041 18.0432 65.8143 17.133 65.8245 16.2535C65.8449 14.586 65.8653 12.8643 65.6717 11.1866C65.4102 8.89432 64.8329 6.96879 63.9092 5.30474C62.0006 1.87478 59.0665 0.0952684 55.1882 0.0171602C53.5989 -0.0134038 51.9756 -0.0100078 50.4066 -0.00321581C49.4592 -0.00321581 48.5151 0.00357621 47.571 -0.00321581C47.5846 0.896726 47.5812 1.79327 47.5778 2.69321V3.86144C47.5778 3.86144 47.5778 3.86823 47.5778 3.87502H50.0942C51.6768 3.87502 53.2593 3.87502 54.8452 3.87502C55.2086 3.87502 55.6229 3.87502 56.0338 3.92936C58.2005 4.21463 59.8136 5.49152 60.8256 7.7227C61.5829 9.39354 61.9429 11.2613 61.9938 13.7778C62.021 15.2041 62.0142 16.6474 62.004 18.0466L61.9972 19.045C61.9938 19.7921 62.0244 20.3592 62.0957 20.8822C62.6255 24.7469 64.1775 27.7252 66.8365 29.9835C66.9418 30.0718 67.1863 30.279 67.1795 30.6118C67.1727 30.9446 66.9112 31.1518 66.8229 31.2197C66.0996 31.7868 65.4476 32.4728 64.8261 33.315C63.0228 35.7601 62.0753 38.5822 62.0074 41.7032C61.9768 43.0276 61.987 44.3792 61.9938 45.6867C62.004 47.5069 62.0176 49.3917 61.9293 51.2493C61.8818 52.2783 61.6916 53.2564 61.3724 54.1495C60.8018 55.7422 59.7117 56.7916 58.1258 57.2637C57.2428 57.5285 56.3361 57.661 55.4293 57.6678C53.5038 57.678 51.5783 57.6746 49.6527 57.6746H47.5778C47.588 58.7545 47.588 59.8175 47.5914 60.877V61.5426H55.684C56.0169 61.4917 56.3531 61.4577 56.6757 61.4272C57.073 61.3864 57.45 61.3491 57.8269 61.2845C61.9123 60.568 64.6189 57.9361 65.451 53.8677C65.7023 52.6417 65.8279 51.4225 65.8245 50.2441C65.8211 48.8653 65.8245 47.4832 65.8245 46.1044C65.8245 44.9294 65.8245 43.7577 65.8245 42.5827C65.8211 40.1002 66.3509 38.0389 67.4512 36.2899C68.6126 34.4391 70.0797 33.298 71.9373 32.8022L71.9339 32.8158Z" fill="#FF3000"/>
<path d="M9.118 50.2607C9.118 51.4391 9.24026 52.6583 9.49156 53.8842C10.3236 57.9526 13.0302 60.5845 17.1156 61.3011C17.4926 61.3656 17.8661 61.403 18.2668 61.4437C18.5895 61.4777 18.9257 61.5082 19.2585 61.5592H27.3512V60.8223C27.3546 59.7763 27.358 58.7337 27.3681 57.6877H25.2898C23.3643 57.6877 21.4387 57.6877 19.5132 57.6809C18.6064 57.6776 17.6997 57.5417 16.8168 57.2768C15.2342 56.8014 14.1407 55.7554 13.5702 54.1627C13.2509 53.2695 13.0608 52.2915 13.0132 51.2625C12.9249 49.4049 12.9351 47.5201 12.9487 45.6998C12.9555 44.3924 12.9657 43.0408 12.9351 41.7163C12.8672 38.5954 11.9197 35.7733 10.1164 33.3282C9.49496 32.486 8.84293 31.8 8.11958 31.2329C8.03468 31.1649 7.76979 30.9612 7.76639 30.625C7.7596 30.2922 8.00411 30.085 8.10939 29.9967C10.7719 27.7384 12.3238 24.7601 12.8502 20.8954C12.9215 20.3724 12.9521 19.8053 12.9487 19.0582L12.9419 18.0597C12.9351 16.6606 12.9249 15.2139 12.9521 13.791C12.9996 11.2745 13.3596 9.40671 14.1203 7.73588C15.1323 5.5047 16.7454 4.2278 18.9121 3.94254C19.323 3.8882 19.7373 3.8882 20.1007 3.8882C21.6832 3.8882 23.2658 3.8882 24.8517 3.8882H27.3512C27.3512 3.8882 27.3647 3.8882 27.3681 3.8882V2.70979C27.3681 1.80985 27.3614 0.9133 27.3749 0.0133582C26.4308 0.0201502 25.4834 0.0133582 24.5393 0.0133582C22.9703 0.00656614 21.3504 -0.00022587 19.7577 0.0337342C15.8795 0.111842 12.9453 1.89135 11.0367 5.32132C10.1096 6.98536 9.53571 8.9109 9.27422 11.2032C9.08404 12.8774 9.10442 14.5992 9.1214 16.2666C9.13159 17.1462 9.14178 18.0597 9.1214 18.9597C9.06027 21.6561 8.36069 23.8465 6.98191 25.6532C6.12273 26.7807 5.11751 27.5991 4.00362 28.0848C3.5078 28.3021 3.03576 28.4176 2.58069 28.533C1.83696 28.7198 1.19852 28.8794 0.60761 29.4296C0.397058 29.6265 0.0336849 30.0341 0.00312082 30.5469C-0.0308392 31.1072 0.356306 31.6302 0.733262 31.9324C1.30719 32.3977 1.92526 32.5539 2.64521 32.7373C2.76407 32.7678 2.88633 32.7984 3.01198 32.8324C4.8696 33.3282 6.33667 34.4692 7.49811 36.3201C8.59841 38.0724 9.13159 40.1304 9.1248 42.6129C9.1248 43.7879 9.1248 44.9595 9.1248 46.1345C9.1248 47.5133 9.1248 48.8955 9.1248 50.2743L9.118 50.2607Z" fill="#FF3000"/>
</g>
<path d="M143.373 40.4442L142.639 44.7903H149.143C149.394 44.7903 149.586 45.0172 149.543 45.2657L149.011 48.2423C148.975 48.4368 148.808 48.5773 148.611 48.5773H141.931L141.139 53.1881H148.557C148.808 53.1881 149 53.415 148.957 53.6635L148.395 56.8751C148.36 57.0696 148.192 57.21 147.995 57.21H135.897C135.645 57.21 135.454 56.9832 135.497 56.7346L138.995 36.7842C139.03 36.5897 139.197 36.4492 139.395 36.4492H151.493C151.744 36.4492 151.936 36.6761 151.893 36.9246L151.331 40.1092C151.296 40.3037 151.128 40.4442 150.931 40.4442H143.373Z" fill="#FF3000"/>
<path d="M163.223 49.1649C163.223 49.1645 163.222 49.165 163.223 49.1655L167.27 56.6096C167.416 56.8797 167.222 57.2092 166.914 57.2092H162.197C162.049 57.2092 161.911 57.1282 161.841 56.9958L159.431 52.539L156.001 57.0472C155.925 57.1471 155.807 57.2065 155.68 57.2065H151.182C150.842 57.2065 150.653 56.8122 150.869 56.5475L156.871 49.152C157.126 48.8379 157.167 48.4013 156.974 48.0456L153.386 41.4212C153.24 41.1511 153.435 40.8242 153.743 40.8242H158.459C158.608 40.8242 158.745 40.9053 158.816 41.0376L161.198 45.435L164.599 40.9836C164.674 40.8836 164.793 40.8242 164.92 40.8242H169.399C169.744 40.8242 169.931 41.2267 169.709 41.4914L163.224 49.1649C163.224 49.1651 163.224 49.1651 163.223 49.1649V49.1649Z" fill="#FF3000"/>
<path d="M182.294 41.4862C183.145 42.0642 183.688 42.8314 183.923 43.7903L184.393 41.1594C184.428 40.9649 184.595 40.8244 184.792 40.8244H188.99C189.241 40.8244 189.433 41.0513 189.39 41.2998L186.626 56.8745C186.591 57.069 186.424 57.2094 186.227 57.2094H182.034C181.781 57.2094 181.589 56.9798 181.637 56.7286L182.105 54.2436C181.519 55.2214 180.719 55.9966 179.712 56.5639C178.704 57.1311 177.561 57.4147 176.289 57.4147C174.509 57.4147 173.099 56.8421 172.062 55.6968C171.025 54.5515 170.506 52.9606 170.506 50.9266C170.506 50.1244 170.574 49.3411 170.711 48.5766C171.006 46.9533 171.557 45.5379 172.37 44.3332C173.183 43.1285 174.172 42.2101 175.336 41.5726C176.5 40.9379 177.737 40.6191 179.05 40.6191C180.362 40.6191 181.443 40.9082 182.294 41.4862ZM177.332 46.0808C176.538 46.7858 176.035 47.7636 175.819 49.0169C175.76 49.3681 175.73 49.6922 175.73 49.9866C175.73 50.9455 176 51.691 176.538 52.2178C177.075 52.7472 177.796 53.0119 178.696 53.0119C179.752 53.0119 180.681 52.6499 181.486 51.926C182.288 51.2021 182.796 50.2324 183.012 49.0196C183.072 48.6874 183.101 48.3741 183.101 48.0796C183.101 47.1207 182.831 46.3725 182.294 45.8323C181.756 45.2948 181.035 45.0247 180.136 45.0247C179.058 45.0247 178.123 45.3758 177.332 46.0808Z" fill="#FF3000"/>
<path d="M218.749 42.0275C218.749 42.0275 218.749 42.0281 218.749 42.0285C219.688 42.9495 220.158 44.2511 220.158 45.9333C220.158 46.5978 220.109 47.1866 220.012 47.6945L218.397 56.8729C218.362 57.0674 218.194 57.2078 217.997 57.2078H213.8C213.548 57.2078 213.357 56.9809 213.4 56.7324L214.902 48.2806C214.94 48.105 214.961 47.8403 214.961 47.4892C214.961 46.6869 214.732 46.0711 214.272 45.6389C213.813 45.2094 213.17 44.9933 212.349 44.9933C211.371 44.9933 210.542 45.2932 209.867 45.8901C209.192 46.4871 208.757 47.3244 208.559 48.3995L208.536 48.4704C208.532 48.4824 208.53 48.4951 208.53 48.5078V48.5078C208.53 48.5148 208.529 48.5218 208.528 48.5287L207.033 56.8756C206.998 57.0674 206.831 57.2078 206.634 57.2078H202.463C202.212 57.2078 202.02 56.9809 202.063 56.7324L203.538 48.2806C203.598 47.9862 203.627 47.7134 203.627 47.4595C203.627 46.6761 203.398 46.0711 202.938 45.6389C202.479 45.2094 201.836 44.9933 201.015 44.9933C200.037 44.9933 199.2 45.3013 198.506 45.9171C197.812 46.533 197.366 47.4 197.169 48.5156L195.699 56.8729C195.664 57.0674 195.497 57.2078 195.3 57.2078H191.072C190.821 57.2078 190.629 56.9809 190.673 56.7324L193.409 41.1577C193.444 40.9633 193.611 40.8228 193.809 40.8228H198.036C198.287 40.8228 198.479 41.0497 198.436 41.2982L198.022 43.6104C198.63 42.6893 199.422 41.9654 200.399 41.4387C201.377 40.9092 202.455 40.6445 203.63 40.6445C204.883 40.6445 205.939 40.9335 206.801 41.5116C207.663 42.0896 208.249 42.9162 208.562 43.9939C209.286 42.9756 210.196 42.1626 211.293 41.5575C212.39 40.9498 213.543 40.6472 214.759 40.6472C216.481 40.6472 217.81 41.1061 218.75 42.0266C218.75 42.0269 218.75 42.0275 218.749 42.0275V42.0275Z" fill="#FF3000"/>
<path d="M239.609 42.2944C239.609 42.294 239.609 42.2937 239.61 42.2941C240.657 43.4096 241.181 44.957 241.181 46.9336C241.181 47.5792 241.122 48.2734 241.005 49.0189C240.692 50.7206 240.119 52.2089 239.287 53.4811C238.456 54.7534 237.443 55.7285 236.249 56.4038C235.055 57.079 233.791 57.4167 232.462 57.4167C231.133 57.4167 230.158 57.1331 229.364 56.5658C228.572 55.9986 228.056 55.2261 227.821 54.2456L225.971 64.6881C225.936 64.8826 225.768 65.023 225.571 65.023H221.344C221.093 65.023 220.901 64.7961 220.944 64.5476L225.088 41.1613C225.123 40.9668 225.29 40.8264 225.487 40.8264H229.685C229.936 40.8264 230.128 41.0533 230.085 41.3018L229.642 43.7922C230.228 42.8144 231.022 42.0392 232.019 41.4719C233.018 40.9047 234.153 40.6211 235.425 40.6211C237.167 40.6211 238.56 41.1799 239.608 42.2948C239.608 42.2952 239.609 42.2949 239.609 42.2944V42.2944ZM234.369 51.9537C234.369 51.9528 234.369 51.952 234.37 51.9514C235.152 51.2465 235.66 50.269 235.895 49.0162C235.954 48.665 235.984 48.3409 235.984 48.0465C235.984 47.0876 235.714 46.3421 235.176 45.8154C234.639 45.2859 233.918 45.0212 233.018 45.0212C231.962 45.0212 231.03 45.3778 230.228 46.0936C229.426 46.8094 228.915 47.7818 228.702 49.0162C228.642 49.3295 228.613 49.6428 228.613 49.9562C228.613 50.9151 228.883 51.6633 229.42 52.2035C229.958 52.741 230.679 53.0111 231.578 53.0111C232.656 53.0111 233.585 52.6603 234.368 51.9559C234.368 51.9553 234.369 51.9545 234.369 51.9537V51.9537Z" fill="#FF3000"/>
<path d="M251.578 35.9559L247.901 56.8734C247.866 57.0678 247.699 57.2083 247.502 57.2083H243.274C243.023 57.2083 242.831 56.9814 242.875 56.7329L246.551 35.8154C246.586 35.6209 246.753 35.4805 246.951 35.4805H251.178C251.429 35.4805 251.621 35.7074 251.578 35.9559Z" fill="#FF3000"/>
<path d="M267.12 42.3365C267.122 42.3373 267.123 42.3385 267.125 42.3399C268.347 43.4849 268.957 45.0158 268.957 46.9324C268.957 47.3835 268.908 47.9318 268.811 48.5774C268.749 48.9529 268.654 49.3148 268.53 49.6659C268.473 49.8253 268.319 49.928 268.149 49.928H257.066C257.026 50.3196 257.007 50.5843 257.007 50.7194C257.007 52.5021 257.858 53.3908 259.562 53.3908C260.286 53.3908 260.932 53.2044 261.499 52.8317C261.996 52.5075 262.371 52.0997 262.628 51.6081C262.698 51.473 262.847 51.392 262.998 51.392H267.444C267.736 51.392 267.933 51.6918 267.817 51.9592C267.15 53.4826 266.104 54.7414 264.681 55.7354C263.084 56.8509 261.221 57.4101 259.087 57.4101C256.953 57.4101 255.294 56.8239 254.052 55.6489C252.809 54.4739 252.188 52.8506 252.188 50.7761C252.188 50.1494 252.247 49.485 252.364 48.78C252.658 47.1161 253.263 45.6683 254.184 44.4339C255.105 43.1995 256.245 42.2568 257.604 41.6004C258.965 40.944 260.448 40.6172 262.053 40.6172C264.204 40.6172 265.891 41.1891 267.115 42.333C267.116 42.3344 267.118 42.3356 267.12 42.3365V42.3365ZM263.935 46.9351C263.935 46.1518 263.689 45.5656 263.201 45.174C262.712 44.7823 262.093 44.5878 261.35 44.5878C260.429 44.5878 259.619 44.8633 258.914 45.409C258.209 45.9573 257.72 46.7595 257.444 47.8157H263.846C263.906 47.4834 263.935 47.189 263.935 46.9351Z" fill="#FF3000"/>
<path d="M105.052 41.3436C105.052 41.343 105.052 41.3426 105.053 41.3429C106.157 42.0074 107.024 42.9687 107.65 44.2189C108.277 45.4723 108.59 46.939 108.59 48.6245C108.59 50.31 108.277 51.8064 107.65 53.0597C107.024 54.313 106.157 55.2719 105.052 55.9364C103.944 56.6009 102.688 56.9358 101.278 56.9358C99.8684 56.9358 98.5583 56.5739 97.5184 55.85C96.4812 55.1261 95.7573 54.1672 95.3467 52.9733V56.3254C95.3467 56.5496 95.1657 56.7305 94.9415 56.7305H92.4052C92.181 56.7305 92 56.5496 92 56.3254V35.4052C92 35.181 92.181 35 92.4052 35H94.9415C95.1657 35 95.3467 35.181 95.3467 35.4052V44.3081C95.7573 43.1142 96.4812 42.1553 97.5184 41.4314C98.5556 40.7075 99.8089 40.3455 101.278 40.3455C102.747 40.3455 103.944 40.6775 105.051 41.3442C105.051 41.3445 105.052 41.3442 105.052 41.3436V41.3436ZM97.7237 43.9421C97.7237 43.9415 97.723 43.9411 97.7225 43.9414C96.9776 44.3817 96.3918 45.0081 95.9625 45.8207C95.5304 46.6337 95.317 47.5683 95.317 48.6245C95.317 49.6806 95.5331 50.6395 95.9625 51.4444C96.392 52.2467 96.9809 52.8679 97.7237 53.3082C98.4665 53.7485 99.3092 53.97 100.249 53.97C101.738 53.97 102.931 53.4946 103.831 52.5465C104.73 51.5984 105.181 50.2911 105.181 48.6272C105.181 46.9633 104.73 45.6802 103.831 44.7213C102.931 43.7624 101.735 43.2816 100.249 43.2816C99.3097 43.2816 98.4674 43.5002 97.7248 43.9427C97.7243 43.943 97.7237 43.9427 97.7237 43.9421V43.9421Z" fill="white"/>
<path d="M113.831 40.8014C113.831 40.8023 113.831 40.8032 113.831 40.804L118.574 52.4419L122.968 40.8108C123.028 40.6542 123.179 40.5488 123.347 40.5488H126.191C126.48 40.5488 126.674 40.8405 126.566 41.108L117.12 64.1701C117.058 64.3214 116.91 64.4213 116.745 64.4213H113.903C113.612 64.4213 113.417 64.1215 113.531 63.8541L116.609 56.7415C116.718 56.4885 116.718 56.2015 116.609 55.9483L110.211 41.1134C110.095 40.846 110.292 40.5488 110.584 40.5488H113.455C113.619 40.5488 113.768 40.6482 113.83 40.7988C113.83 40.7996 113.831 40.8005 113.831 40.8014V40.8014Z" fill="white"/>
<path d="M95.8402 26.1466C95.8402 26.1484 95.8383 26.1497 95.8366 26.1489C94.6398 25.6286 93.7026 24.8799 93.0172 23.9268C92.3864 23.0436 92.0473 22.0264 92 20.8752C92 20.7017 92.1342 20.5598 92.3076 20.5598H95.6352C95.785 20.5598 95.9111 20.6702 95.9348 20.8121C96.0609 21.6559 96.4316 22.3656 97.0388 22.9333C97.7091 23.5563 98.6552 23.8637 99.8774 23.8637C101.1 23.8637 102.117 23.5562 102.827 22.949C103.528 22.3418 103.883 21.5533 103.883 20.5913C103.883 19.8422 103.662 19.2351 103.229 18.762C102.787 18.2888 102.243 17.9261 101.596 17.6738C100.942 17.4136 100.043 17.1375 98.8917 16.8379C97.4409 16.4515 96.2581 16.0652 95.3513 15.6709C94.4444 15.2766 93.6717 14.6616 93.0251 13.8258C92.3864 12.9899 92.0631 11.8781 92.0631 10.4903C92.0631 9.20498 92.3864 8.08525 93.0251 7.12325C93.6638 6.16124 94.5627 5.42787 95.7139 4.91532C96.8652 4.40278 98.2058 4.14258 99.7197 4.14258C101.88 4.14258 103.647 4.67882 105.027 5.7591C106.32 6.77631 107.077 8.14043 107.282 9.85942C107.305 10.0408 107.156 10.1985 106.974 10.1985H103.544C103.394 10.1985 103.268 10.096 103.244 9.94615C103.126 9.24436 102.756 8.62935 102.125 8.1168C101.423 7.54118 100.493 7.24944 99.3334 7.24944C98.2846 7.24944 97.433 7.51755 96.7706 8.05375C96.1083 8.58996 95.7771 9.35478 95.7771 10.3641C95.7771 11.0501 95.9821 11.61 96.4001 12.0437C96.818 12.4852 97.3463 12.8322 97.985 13.0845C98.6237 13.3447 99.4989 13.6207 100.611 13.9204C102.085 14.3304 103.284 14.7326 104.214 15.1347C105.145 15.5448 105.933 16.1677 106.588 17.0114C107.242 17.8552 107.566 18.9827 107.566 20.3942C107.566 21.5297 107.258 22.5942 106.651 23.5957C106.044 24.5971 105.153 25.4092 103.994 26.0164C102.826 26.6236 101.454 26.9311 99.8774 26.9311C98.3807 26.9311 97.0415 26.6714 95.8439 26.1442C95.8421 26.1434 95.8402 26.1447 95.8402 26.1466V26.1466Z" fill="white"/>
<path d="M116.154 12.0367V21.8145C116.154 22.4769 116.311 22.95 116.619 23.2417C116.926 23.5335 117.455 23.6754 118.204 23.6754H120.144C120.309 23.6754 120.451 23.8095 120.451 23.983V26.4195C120.451 26.5851 120.317 26.727 120.144 26.727H117.565C115.917 26.727 114.663 26.3407 113.78 25.5758C112.905 24.8031 112.463 23.5572 112.463 21.8224V12.0446H110.689C110.523 12.0446 110.382 11.9106 110.382 11.7371V9.37149C110.382 9.20589 110.516 9.06395 110.689 9.06395H112.463V4.97941C112.463 4.81382 112.597 4.67188 112.771 4.67188H115.846C116.012 4.67188 116.154 4.80594 116.154 4.97941V9.06395H120.144C120.309 9.06395 120.451 9.19801 120.451 9.37149V11.7371C120.451 11.9027 120.317 12.0446 120.144 12.0446H116.154V12.0367Z" fill="white"/>
<path d="M123.699 13.1064C123.699 13.0986 123.701 13.091 123.705 13.0841C124.438 11.725 125.445 10.664 126.711 9.90897C127.981 9.15198 129.385 8.77344 130.922 8.77344C132.31 8.77344 133.524 9.04945 134.557 9.59354C135.59 10.1376 136.418 10.8157 137.041 11.6279V9.37273C137.041 9.20714 137.175 9.06519 137.349 9.06519H140.424C140.59 9.06519 140.731 9.19925 140.731 9.37273V26.4208C140.731 26.5863 140.597 26.7283 140.424 26.7283H137.349C137.183 26.7283 137.041 26.5942 137.041 26.4208V24.1025C136.418 24.9384 135.575 25.6323 134.51 26.1842C133.438 26.7362 132.223 27.02 130.859 27.02C129.345 27.02 127.957 26.6337 126.696 25.853C125.434 25.0724 124.432 23.9842 123.699 22.5806C122.966 21.1849 122.595 19.5921 122.595 17.8258C122.595 16.0639 122.964 14.4904 123.694 13.1287C123.697 13.1218 123.699 13.1142 123.699 13.1064V13.1064ZM136.292 14.6953C135.787 13.7964 135.133 13.1183 134.321 12.6451C133.508 12.172 132.633 11.9433 131.695 11.9433C130.757 11.9433 129.881 12.172 129.069 12.6294C128.257 13.0867 127.602 13.7649 127.098 14.648C126.593 15.5312 126.341 16.5878 126.341 17.8022C126.341 19.0165 126.593 20.0889 127.098 21.0036C127.602 21.9261 128.265 22.6201 129.085 23.1011C129.905 23.5821 130.78 23.8187 131.695 23.8187C132.61 23.8187 133.508 23.5821 134.321 23.1169C135.133 22.6437 135.787 21.9577 136.292 21.0509C136.797 20.1441 137.041 19.0796 137.041 17.8652C137.041 16.6509 136.789 15.5863 136.292 14.6953Z" fill="white"/>
<path d="M151.333 9.5226C151.332 9.5226 151.332 9.52119 151.333 9.52067C152.144 9.06454 153.089 8.81281 154.176 8.77344C154.349 8.77344 154.491 8.9075 154.491 9.08098V12.243C154.491 12.4086 154.357 12.5505 154.184 12.5505H153.561C152.126 12.5505 151.045 12.9133 150.312 13.6387C149.579 14.3642 149.208 15.6257 149.208 17.4236V26.4129C149.208 26.5785 149.074 26.7204 148.901 26.7204H145.857C145.691 26.7204 145.549 26.5863 145.549 26.4129V9.36484C145.549 9.19924 145.683 9.0573 145.857 9.0573H148.901C149.066 9.0573 149.208 9.19136 149.208 9.36484V11.62C149.744 10.7223 150.452 10.0212 151.334 9.52454C151.335 9.52402 151.334 9.5226 151.333 9.5226V9.5226Z" fill="white"/>
<path d="M164.856 17.91C164.851 17.9082 164.847 17.9148 164.851 17.919L172.501 26.2064C172.682 26.4035 172.54 26.719 172.28 26.719H168.187C168.101 26.719 168.014 26.6795 167.959 26.6164L161.516 19.1254V26.4114C161.516 26.577 161.382 26.719 161.209 26.719H158.165C158 26.719 157.858 26.5849 157.858 26.4114V3.30754C157.858 3.14195 157.992 3 158.165 3H161.209C161.374 3 161.516 3.13406 161.516 3.30754V16.7835L167.832 9.17416C167.888 9.10319 167.974 9.06375 168.069 9.06375H172.296C172.564 9.06375 172.698 9.37918 172.524 9.57632L164.862 17.9085C164.861 17.9101 164.858 17.9107 164.856 17.91V17.91Z" fill="white"/>
<path d="M188.24 9.63113C189.344 10.2068 190.203 11.0663 190.818 12.1939C191.441 13.3293 191.748 14.6935 191.748 16.2942V26.4031C191.748 26.5687 191.615 26.7106 191.441 26.7106H188.429C188.263 26.7106 188.121 26.5766 188.121 26.4031V16.8382C188.121 15.2612 187.727 14.0468 186.939 13.2031C186.15 12.3594 185.07 11.9336 183.706 11.9336C182.341 11.9336 181.253 12.3594 180.449 13.2031C179.644 14.0468 179.25 15.2612 179.25 16.8382V26.4031C179.25 26.5687 179.116 26.7106 178.943 26.7106H175.899C175.734 26.7106 175.592 26.5766 175.592 26.4031V9.35507C175.592 9.18948 175.726 9.04753 175.899 9.04753H178.943C179.108 9.04753 179.25 9.18159 179.25 9.35507V11.0662C179.85 10.3408 180.614 9.77301 181.545 9.37086C182.475 8.96871 183.461 8.76367 184.51 8.76367C185.898 8.76367 187.144 9.05551 188.24 9.63113Z" fill="white"/>
<path d="M212.188 19.251H198.964C199.075 20.6625 199.595 21.79 200.533 22.6495C201.472 23.5011 202.623 23.9348 203.995 23.9348C205.895 23.9348 207.251 23.17 208.079 21.6324C208.135 21.5299 208.237 21.4667 208.348 21.4667H211.667C211.88 21.4667 212.03 21.6875 211.951 21.8847C211.391 23.3198 210.477 24.5105 209.199 25.4567C207.804 26.4897 206.061 27.0101 203.995 27.0101C202.307 27.0101 200.793 26.6317 199.461 25.8747C198.128 25.1177 197.079 24.0452 196.322 22.6732C195.565 21.2933 195.187 19.7005 195.187 17.879C195.187 16.0575 195.558 14.4646 196.291 13.0846C197.024 11.7047 198.065 10.6403 199.398 9.89904C200.73 9.14994 202.268 8.7793 203.995 8.7793C205.722 8.7793 207.149 9.14202 208.45 9.86747C209.751 10.5929 210.768 11.6101 211.494 12.927C212.219 14.2438 212.582 15.7499 212.582 17.461C212.582 18.0209 212.55 18.5256 212.495 18.9908C212.479 19.1406 212.345 19.251 212.196 19.251H212.188ZM208.767 16.303C208.766 16.3023 208.766 16.3013 208.765 16.3003C208.741 14.9527 208.26 13.8808 207.322 13.069C206.384 12.2568 205.217 11.8546 203.829 11.8546C202.568 11.8546 201.487 12.2568 200.596 13.0532C199.705 13.8496 199.161 14.9378 198.996 16.3098H208.764C208.767 16.3098 208.769 16.3055 208.767 16.303V16.303Z" fill="white"/>
<path d="M220.428 12.0367V21.8145C220.428 22.4769 220.586 22.95 220.893 23.2417C221.201 23.5335 221.729 23.6754 222.478 23.6754H224.418C224.583 23.6754 224.726 23.8095 224.726 23.983V26.4195C224.726 26.5851 224.591 26.727 224.418 26.727H221.84C220.192 26.727 218.938 26.3407 218.055 25.5758C217.179 24.8031 216.738 23.5572 216.738 21.8224V12.0446H214.963C214.798 12.0446 214.656 11.9106 214.656 11.7371V9.37149C214.656 9.20589 214.79 9.06395 214.963 9.06395H216.738V4.97941C216.738 4.81382 216.872 4.67188 217.045 4.67188H220.12C220.286 4.67188 220.428 4.80594 220.428 4.97941V9.05556C220.428 9.05589 220.428 9.05622 220.428 9.05654C220.428 9.05827 220.429 9.06395 220.436 9.06395H224.418C224.583 9.06395 224.726 9.19801 224.726 9.37149V11.7371C224.726 11.9027 224.591 12.0446 224.418 12.0446H220.436C220.432 12.0446 220.428 12.0411 220.428 12.0367V12.0367Z" fill="white"/>
<defs>
<clipPath id="clip0_148_1550">
<rect width="74.9431" height="61.5628" fill="white"/>
</clipPath>
</defs>
</svg>
