<svg width="75" height="62" viewBox="0 0 75 62" fill="none" xmlns="http://www.w3.org/2000/svg">
<g clip-path="url(#clip0_148_1678)">
<path fill-rule="evenodd" clip-rule="evenodd" d="M53.5172 31.7619L44.8835 34.6045C43.0556 35.1047 41.7512 36.3916 41.21 38.1758L38.5864 46.6168C38.3321 47.6434 36.5042 47.9037 36.2468 46.6168L33.3689 38.1758C32.8306 36.6403 31.2571 35.3621 29.6954 34.6045L21.0617 32.0395C20.0117 31.7619 19.7455 29.9748 21.0617 29.7261L29.6954 26.9124C31.5233 26.4121 32.8277 25.1253 33.3689 23.3208L35.9925 14.8798C36.2468 13.8705 38.0747 13.5929 38.3321 14.8798L41.21 23.3208C41.7483 25.134 43.0645 26.4121 44.8835 26.9124L53.5172 29.4774C54.5672 29.7261 54.8245 31.5132 53.5172 31.7648V31.7619Z" fill="#111C46"/>
<path d="M71.9339 32.8158C72.0562 32.7818 72.1784 32.7513 72.3007 32.7207C73.0173 32.5373 73.6387 32.3777 74.2127 31.9159C74.5896 31.6136 74.9768 31.0872 74.9428 30.5303C74.9122 30.0209 74.5523 29.6134 74.3383 29.413C73.7474 28.8628 73.1056 28.6998 72.3652 28.5165C71.9102 28.401 71.4381 28.2855 70.9423 28.0682C69.825 27.5826 68.8232 26.7641 67.964 25.6366C66.5852 23.8266 65.8857 21.6395 65.8245 18.9431C65.8041 18.0432 65.8143 17.133 65.8245 16.2535C65.8449 14.586 65.8653 12.8643 65.6717 11.1866C65.4102 8.89432 64.8329 6.96879 63.9092 5.30474C62.0006 1.87478 59.0665 0.0952684 55.1882 0.0171602C53.5989 -0.0134038 51.9756 -0.0100078 50.4066 -0.00321581C49.4592 -0.00321581 48.5151 0.00357621 47.571 -0.00321581C47.5846 0.896726 47.5812 1.79327 47.5778 2.69321V3.86144C47.5778 3.86144 47.5778 3.86823 47.5778 3.87502H50.0942C51.6768 3.87502 53.2593 3.87502 54.8452 3.87502C55.2086 3.87502 55.6229 3.87502 56.0338 3.92936C58.2005 4.21463 59.8136 5.49152 60.8256 7.7227C61.5829 9.39354 61.9429 11.2613 61.9938 13.7778C62.021 15.2041 62.0142 16.6474 62.004 18.0466L61.9972 19.045C61.9938 19.7921 62.0244 20.3592 62.0957 20.8822C62.6255 24.7469 64.1775 27.7252 66.8365 29.9835C66.9418 30.0718 67.1863 30.279 67.1795 30.6118C67.1727 30.9446 66.9112 31.1518 66.8229 31.2197C66.0996 31.7868 65.4476 32.4728 64.8261 33.315C63.0228 35.7601 62.0753 38.5822 62.0074 41.7032C61.9768 43.0276 61.987 44.3792 61.9938 45.6867C62.004 47.5069 62.0176 49.3917 61.9293 51.2493C61.8818 52.2783 61.6916 53.2564 61.3724 54.1495C60.8018 55.7422 59.7117 56.7916 58.1258 57.2637C57.2428 57.5285 56.3361 57.661 55.4293 57.6678C53.5038 57.678 51.5783 57.6746 49.6527 57.6746H47.5778C47.588 58.7545 47.588 59.8175 47.5914 60.877V61.5426H55.684C56.0169 61.4917 56.3531 61.4577 56.6757 61.4272C57.073 61.3864 57.45 61.3491 57.8269 61.2845C61.9123 60.568 64.6189 57.9361 65.451 53.8677C65.7023 52.6417 65.8279 51.4225 65.8245 50.2441C65.8211 48.8653 65.8245 47.4832 65.8245 46.1044C65.8245 44.9294 65.8245 43.7577 65.8245 42.5827C65.8211 40.1002 66.3509 38.0389 67.4512 36.2899C68.6126 34.4391 70.0797 33.298 71.9373 32.8022L71.9339 32.8158Z" fill="#FF3000"/>
<path d="M9.118 50.2607C9.118 51.4391 9.24026 52.6583 9.49156 53.8842C10.3236 57.9526 13.0302 60.5845 17.1156 61.3011C17.4926 61.3656 17.8661 61.403 18.2668 61.4437C18.5895 61.4777 18.9257 61.5082 19.2585 61.5592H27.3512V60.8223C27.3546 59.7763 27.358 58.7337 27.3681 57.6877H25.2898C23.3643 57.6877 21.4387 57.6877 19.5132 57.6809C18.6064 57.6776 17.6997 57.5417 16.8168 57.2768C15.2342 56.8014 14.1407 55.7554 13.5702 54.1627C13.2509 53.2695 13.0608 52.2915 13.0132 51.2625C12.9249 49.4049 12.9351 47.5201 12.9487 45.6998C12.9555 44.3924 12.9657 43.0408 12.9351 41.7163C12.8672 38.5954 11.9197 35.7733 10.1164 33.3282C9.49496 32.486 8.84293 31.8 8.11958 31.2329C8.03468 31.1649 7.76979 30.9612 7.76639 30.625C7.7596 30.2922 8.00411 30.085 8.10939 29.9967C10.7719 27.7384 12.3238 24.7601 12.8502 20.8954C12.9215 20.3724 12.9521 19.8053 12.9487 19.0582L12.9419 18.0597C12.9351 16.6606 12.9249 15.2139 12.9521 13.791C12.9996 11.2745 13.3596 9.40671 14.1203 7.73588C15.1323 5.5047 16.7454 4.2278 18.9121 3.94254C19.323 3.8882 19.7373 3.8882 20.1007 3.8882C21.6832 3.8882 23.2658 3.8882 24.8517 3.8882H27.3512C27.3512 3.8882 27.3647 3.8882 27.3681 3.8882V2.70979C27.3681 1.80985 27.3614 0.9133 27.3749 0.0133582C26.4308 0.0201502 25.4834 0.0133582 24.5393 0.0133582C22.9703 0.00656614 21.3504 -0.00022587 19.7577 0.0337342C15.8795 0.111842 12.9453 1.89135 11.0367 5.32132C10.1096 6.98536 9.53571 8.9109 9.27422 11.2032C9.08404 12.8774 9.10442 14.5992 9.1214 16.2666C9.13159 17.1462 9.14178 18.0597 9.1214 18.9597C9.06027 21.6561 8.36069 23.8465 6.98191 25.6532C6.12273 26.7807 5.11751 27.5991 4.00362 28.0848C3.5078 28.3021 3.03576 28.4176 2.58069 28.533C1.83696 28.7198 1.19852 28.8794 0.60761 29.4296C0.397058 29.6265 0.0336849 30.0341 0.00312082 30.5469C-0.0308392 31.1072 0.356306 31.6302 0.733262 31.9324C1.30719 32.3977 1.92526 32.5539 2.64521 32.7373C2.76407 32.7678 2.88633 32.7984 3.01198 32.8324C4.8696 33.3282 6.33667 34.4692 7.49811 36.3201C8.59841 38.0724 9.13159 40.1304 9.1248 42.6129C9.1248 43.7879 9.1248 44.9595 9.1248 46.1345C9.1248 47.5133 9.1248 48.8955 9.1248 50.2743L9.118 50.2607Z" fill="#FF3000"/>
</g>
<defs>
<clipPath id="clip0_148_1678">
<rect width="74.9431" height="61.5628" fill="white"/>
</clipPath>
</defs>
</svg>
