<svg width="177" height="146" viewBox="0 0 177 146" fill="none" xmlns="http://www.w3.org/2000/svg">
<g clip-path="url(#clip0_160_832)">
<path fill-rule="evenodd" clip-rule="evenodd" d="M104.517 31.7619L95.8835 34.6045C94.0556 35.1047 92.7512 36.3916 92.21 38.1758L89.5864 46.6168C89.3321 47.6434 87.5042 47.9037 87.2468 46.6168L84.3689 38.1758C83.8306 36.6403 82.2571 35.3621 80.6954 34.6045L72.0617 32.0395C71.0117 31.7619 70.7455 29.9748 72.0617 29.7261L80.6954 26.9124C82.5233 26.4121 83.8277 25.1253 84.3689 23.3208L86.9925 14.8798C87.2468 13.8705 89.0747 13.5929 89.3321 14.8798L92.21 23.3208C92.7483 25.134 94.0645 26.4121 95.8835 26.9124L104.517 29.4774C105.567 29.7261 105.825 31.5132 104.517 31.7648V31.7619Z" fill="white"/>
<path d="M122.934 32.8158C123.056 32.7818 123.178 32.7513 123.301 32.7207C124.017 32.5373 124.639 32.3777 125.213 31.9159C125.59 31.6136 125.977 31.0872 125.943 30.5303C125.912 30.0209 125.552 29.6134 125.338 29.413C124.747 28.8628 124.106 28.6998 123.365 28.5165C122.91 28.401 122.438 28.2855 121.942 28.0682C120.825 27.5826 119.823 26.7641 118.964 25.6366C117.585 23.8266 116.886 21.6395 116.825 18.9431C116.804 18.0432 116.814 17.133 116.825 16.2535C116.845 14.586 116.865 12.8643 116.672 11.1866C116.41 8.89432 115.833 6.96879 114.909 5.30474C113.001 1.87478 110.066 0.0952684 106.188 0.0171602C104.599 -0.0134038 102.976 -0.0100078 101.407 -0.00321581C100.459 -0.00321581 99.5151 0.00357621 98.571 -0.00321581C98.5846 0.896726 98.5812 1.79327 98.5778 2.69321V3.86144C98.5778 3.86144 98.5778 3.86823 98.5778 3.87502H101.094C102.677 3.87502 104.259 3.87502 105.845 3.87502C106.209 3.87502 106.623 3.87502 107.034 3.92936C109.2 4.21463 110.814 5.49152 111.826 7.7227C112.583 9.39354 112.943 11.2613 112.994 13.7778C113.021 15.2041 113.014 16.6474 113.004 18.0466L112.997 19.045C112.994 19.7921 113.024 20.3592 113.096 20.8822C113.625 24.7469 115.177 27.7252 117.837 29.9835C117.942 30.0718 118.186 30.279 118.18 30.6118C118.173 30.9446 117.911 31.1518 117.823 31.2197C117.1 31.7868 116.448 32.4728 115.826 33.315C114.023 35.7601 113.075 38.5822 113.007 41.7032C112.977 43.0276 112.987 44.3792 112.994 45.6867C113.004 47.5069 113.018 49.3917 112.929 51.2493C112.882 52.2783 112.692 53.2564 112.372 54.1495C111.802 55.7422 110.712 56.7916 109.126 57.2637C108.243 57.5285 107.336 57.661 106.429 57.6678C104.504 57.678 102.578 57.6746 100.653 57.6746H98.5778C98.588 58.7545 98.588 59.8175 98.5914 60.877V61.5426H106.684C107.017 61.4917 107.353 61.4577 107.676 61.4272C108.073 61.3864 108.45 61.3491 108.827 61.2845C112.912 60.568 115.619 57.9361 116.451 53.8677C116.702 52.6417 116.828 51.4225 116.825 50.2441C116.821 48.8653 116.825 47.4832 116.825 46.1044C116.825 44.9294 116.825 43.7577 116.825 42.5827C116.821 40.1002 117.351 38.0389 118.451 36.2899C119.613 34.4391 121.08 33.298 122.937 32.8022L122.934 32.8158Z" fill="#FF3000"/>
<path d="M60.118 50.2607C60.118 51.4391 60.2403 52.6583 60.4916 53.8842C61.3236 57.9526 64.0302 60.5845 68.1156 61.3011C68.4926 61.3656 68.8661 61.403 69.2668 61.4437C69.5895 61.4777 69.9257 61.5082 70.2585 61.5592H78.3512V60.8223C78.3546 59.7763 78.358 58.7337 78.3681 57.6877H76.2898C74.3643 57.6877 72.4387 57.6877 70.5132 57.6809C69.6064 57.6776 68.6997 57.5417 67.8168 57.2768C66.2342 56.8014 65.1407 55.7554 64.5702 54.1627C64.2509 53.2695 64.0608 52.2915 64.0132 51.2625C63.9249 49.4049 63.9351 47.5201 63.9487 45.6998C63.9555 44.3924 63.9657 43.0408 63.9351 41.7163C63.8672 38.5954 62.9197 35.7733 61.1164 33.3282C60.495 32.486 59.8429 31.8 59.1196 31.2329C59.0347 31.1649 58.7698 30.9612 58.7664 30.625C58.7596 30.2922 59.0041 30.085 59.1094 29.9967C61.7719 27.7384 63.3238 24.7601 63.8502 20.8954C63.9215 20.3724 63.9521 19.8053 63.9487 19.0582L63.9419 18.0597C63.9351 16.6606 63.9249 15.2139 63.9521 13.791C63.9996 11.2745 64.3596 9.40671 65.1203 7.73588C66.1323 5.5047 67.7454 4.2278 69.9121 3.94254C70.323 3.8882 70.7373 3.8882 71.1007 3.8882C72.6832 3.8882 74.2658 3.8882 75.8517 3.8882H78.3512C78.3512 3.8882 78.3647 3.8882 78.3681 3.8882V2.70979C78.3681 1.80985 78.3614 0.9133 78.3749 0.0133582C77.4308 0.0201502 76.4834 0.0133582 75.5393 0.0133582C73.9703 0.00656614 72.3504 -0.00022587 70.7577 0.0337342C66.8795 0.111842 63.9453 1.89135 62.0367 5.32132C61.1096 6.98536 60.5357 8.9109 60.2742 11.2032C60.084 12.8774 60.1044 14.5992 60.1214 16.2666C60.1316 17.1462 60.1418 18.0597 60.1214 18.9597C60.0603 21.6561 59.3607 23.8465 57.9819 25.6532C57.1227 26.7807 56.1175 27.5991 55.0036 28.0848C54.5078 28.3021 54.0358 28.4176 53.5807 28.533C52.837 28.7198 52.1985 28.8794 51.6076 29.4296C51.3971 29.6265 51.0337 30.0341 51.0031 30.5469C50.9692 31.1072 51.3563 31.6302 51.7333 31.9324C52.3072 32.3977 52.9253 32.5539 53.6452 32.7373C53.7641 32.7678 53.8863 32.7984 54.012 32.8324C55.8696 33.3282 57.3367 34.4692 58.4981 36.3201C59.5984 38.0724 60.1316 40.1304 60.1248 42.6129C60.1248 43.7879 60.1248 44.9595 60.1248 46.1345C60.1248 47.5133 60.1248 48.8955 60.1248 50.2743L60.118 50.2607Z" fill="#FF3000"/>
</g>
<path d="M51.3733 120.444L50.6386 124.79H57.1429C57.3941 124.79 57.5859 125.017 57.5427 125.266L57.0105 128.242C56.9754 128.437 56.808 128.577 56.6108 128.577H49.9309L49.1395 133.188H56.5568C56.808 133.188 56.9997 133.415 56.9565 133.663L56.3947 136.875C56.3596 137.07 56.1921 137.21 55.9949 137.21H43.8966C43.6454 137.21 43.4536 136.983 43.4968 136.735L46.9948 116.784C47.0299 116.59 47.1974 116.449 47.3945 116.449H59.4929C59.7441 116.449 59.9359 116.676 59.8926 116.925L59.3308 120.109C59.2957 120.304 59.1282 120.444 58.931 120.444H51.3733Z" fill="#FF3000"/>
<path d="M71.2235 129.165C71.2231 129.165 71.2224 129.165 71.2227 129.165L75.2701 136.61C75.416 136.88 75.2215 137.209 74.9136 137.209H70.1974C70.0488 137.209 69.9111 137.128 69.8409 136.996L67.4315 132.539L64.001 137.047C63.9254 137.147 63.8065 137.207 63.6796 137.207H59.1822C58.8419 137.207 58.6528 136.812 58.8689 136.547L64.8711 129.152C65.126 128.838 65.1666 128.401 64.974 128.046L61.3863 121.421C61.2405 121.151 61.435 120.824 61.7429 120.824H66.4591C66.6076 120.824 66.7454 120.905 66.8156 121.038L69.198 125.435L72.5987 120.984C72.6743 120.884 72.7932 120.824 72.9201 120.824H77.3986C77.7443 120.824 77.9307 121.227 77.7092 121.491L71.2242 129.165C71.224 129.165 71.2237 129.165 71.2235 129.165V129.165Z" fill="#FF3000"/>
<path d="M90.2938 121.486C91.1447 122.064 91.6876 122.831 91.9226 123.79L92.3926 121.159C92.4277 120.965 92.5952 120.824 92.7923 120.824H96.9899C97.2411 120.824 97.4329 121.051 97.3897 121.3L94.6264 136.874C94.5913 137.069 94.4238 137.209 94.2266 137.209H90.0345C89.7806 137.209 89.5888 136.98 89.6374 136.729L90.1047 134.244C89.5186 135.221 88.7191 135.997 87.7115 136.564C86.704 137.131 85.5614 137.415 84.2892 137.415C82.5092 137.415 81.0992 136.842 80.062 135.697C79.0247 134.552 78.5061 132.961 78.5061 130.927C78.5061 130.124 78.5736 129.341 78.7114 128.577C79.0058 126.953 79.5568 125.538 80.3699 124.333C81.1829 123.128 82.1715 122.21 83.3357 121.573C84.4999 120.938 85.737 120.619 87.0498 120.619C88.3625 120.619 89.443 120.908 90.2938 121.486ZM85.3318 126.081C84.5377 126.786 84.0353 127.764 83.8192 129.017C83.7598 129.368 83.7301 129.692 83.7301 129.987C83.7301 130.946 84.0002 131.691 84.5377 132.218C85.0752 132.747 85.7964 133.012 86.6959 133.012C87.752 133.012 88.6812 132.65 89.4862 131.926C90.2884 131.202 90.7962 130.232 91.0123 129.02C91.0717 128.687 91.1014 128.374 91.1014 128.08C91.1014 127.121 90.8313 126.373 90.2938 125.832C89.7563 125.295 89.0351 125.025 88.1356 125.025C87.0579 125.025 86.1233 125.376 85.3318 126.081Z" fill="#FF3000"/>
<path d="M126.749 122.028C126.749 122.028 126.749 122.028 126.749 122.028C127.688 122.949 128.158 124.251 128.158 125.933C128.158 126.598 128.109 127.187 128.012 127.694L126.397 136.873C126.362 137.067 126.194 137.208 125.997 137.208H121.8C121.548 137.208 121.357 136.981 121.4 136.732L122.902 128.281C122.94 128.105 122.961 127.84 122.961 127.489C122.961 126.687 122.732 126.071 122.272 125.639C121.813 125.209 121.17 124.993 120.349 124.993C119.371 124.993 118.542 125.293 117.867 125.89C117.192 126.487 116.757 127.324 116.559 128.399L116.536 128.47C116.532 128.482 116.53 128.495 116.53 128.508V128.508C116.53 128.515 116.529 128.522 116.528 128.529L115.033 136.876C114.998 137.067 114.831 137.208 114.634 137.208H110.463C110.212 137.208 110.02 136.981 110.063 136.732L111.538 128.281C111.598 127.986 111.627 127.713 111.627 127.459C111.627 126.676 111.398 126.071 110.938 125.639C110.479 125.209 109.836 124.993 109.015 124.993C108.037 124.993 107.2 125.301 106.506 125.917C105.812 126.533 105.366 127.4 105.169 128.516L103.699 136.873C103.664 137.067 103.497 137.208 103.3 137.208H99.0724C98.8212 137.208 98.6294 136.981 98.6726 136.732L101.409 121.158C101.444 120.963 101.611 120.823 101.809 120.823H106.036C106.287 120.823 106.479 121.05 106.436 121.298L106.022 123.61C106.63 122.689 107.422 121.965 108.399 121.439C109.377 120.909 110.455 120.645 111.63 120.645C112.883 120.645 113.939 120.934 114.801 121.512C115.663 122.09 116.249 122.916 116.562 123.994C117.286 122.976 118.196 122.163 119.293 121.558C120.39 120.95 121.543 120.647 122.759 120.647C124.481 120.647 125.81 121.106 126.75 122.027C126.75 122.027 126.75 122.028 126.749 122.028V122.028Z" fill="#FF3000"/>
<path d="M147.609 122.294C147.609 122.294 147.61 122.294 147.61 122.294C148.657 123.41 149.181 124.957 149.181 126.934C149.181 127.579 149.122 128.273 149.005 129.019C148.692 130.721 148.119 132.209 147.287 133.481C146.456 134.753 145.443 135.728 144.249 136.404C143.055 137.079 141.791 137.417 140.462 137.417C139.133 137.417 138.158 137.133 137.364 136.566C136.572 135.999 136.056 135.226 135.821 134.246L133.971 144.688C133.936 144.883 133.768 145.023 133.571 145.023H129.344C129.093 145.023 128.901 144.796 128.944 144.548L133.088 121.161C133.123 120.967 133.29 120.826 133.487 120.826H137.685C137.936 120.826 138.128 121.053 138.085 121.302L137.642 123.792C138.228 122.814 139.022 122.039 140.019 121.472C141.018 120.905 142.153 120.621 143.425 120.621C145.167 120.621 146.56 121.18 147.608 122.295C147.608 122.295 147.609 122.295 147.609 122.294V122.294ZM142.369 131.954C142.369 131.953 142.369 131.952 142.37 131.951C143.152 131.246 143.66 130.269 143.895 129.016C143.954 128.665 143.984 128.341 143.984 128.046C143.984 127.088 143.714 126.342 143.176 125.815C142.639 125.286 141.918 125.021 141.018 125.021C139.962 125.021 139.03 125.378 138.228 126.094C137.426 126.809 136.915 127.782 136.702 129.016C136.642 129.33 136.613 129.643 136.613 129.956C136.613 130.915 136.883 131.663 137.42 132.204C137.958 132.741 138.679 133.011 139.578 133.011C140.656 133.011 141.585 132.66 142.368 131.956C142.368 131.955 142.369 131.955 142.369 131.954V131.954Z" fill="#FF3000"/>
<path d="M159.578 115.956L155.901 136.873C155.866 137.068 155.699 137.208 155.502 137.208H151.274C151.023 137.208 150.831 136.981 150.875 136.733L154.551 115.815C154.586 115.621 154.753 115.48 154.951 115.48H159.178C159.429 115.48 159.621 115.707 159.578 115.956Z" fill="#FF3000"/>
<path d="M175.12 122.336C175.122 122.337 175.123 122.339 175.125 122.34C176.347 123.485 176.957 125.016 176.957 126.932C176.957 127.383 176.908 127.932 176.811 128.577C176.749 128.953 176.654 129.315 176.53 129.666C176.473 129.825 176.319 129.928 176.149 129.928H165.066C165.026 130.32 165.007 130.584 165.007 130.719C165.007 132.502 165.858 133.391 167.562 133.391C168.286 133.391 168.932 133.204 169.499 132.832C169.996 132.508 170.371 132.1 170.628 131.608C170.698 131.473 170.847 131.392 170.998 131.392H175.444C175.736 131.392 175.933 131.692 175.817 131.959C175.15 133.483 174.104 134.741 172.681 135.735C171.084 136.851 169.221 137.41 167.087 137.41C164.953 137.41 163.294 136.824 162.052 135.649C160.809 134.474 160.188 132.851 160.188 130.776C160.188 130.149 160.247 129.485 160.364 128.78C160.658 127.116 161.263 125.668 162.184 124.434C163.105 123.199 164.245 122.257 165.604 121.6C166.965 120.944 168.448 120.617 170.053 120.617C172.204 120.617 173.892 121.189 175.115 122.333C175.116 122.334 175.118 122.336 175.12 122.336V122.336ZM171.935 126.935C171.935 126.152 171.689 125.566 171.201 125.174C170.712 124.782 170.093 124.588 169.35 124.588C168.429 124.588 167.619 124.863 166.914 125.409C166.209 125.957 165.72 126.76 165.444 127.816H171.846C171.906 127.483 171.935 127.189 171.935 126.935Z" fill="#FF3000"/>
<path d="M13.0518 121.344C13.0518 121.343 13.0525 121.343 13.053 121.343C14.1572 122.007 15.0239 122.969 15.6503 124.219C16.277 125.472 16.5903 126.939 16.5903 128.624C16.5903 130.31 16.277 131.806 15.6503 133.06C15.0236 134.313 14.1566 135.272 13.0518 135.936C11.9444 136.601 10.6883 136.936 9.27835 136.936C7.86836 136.936 6.55832 136.574 5.51839 135.85C4.48116 135.126 3.75727 134.167 3.34669 132.973V136.325C3.34669 136.55 3.16572 136.731 2.94153 136.731H0.405168C0.180975 136.731 0 136.55 0 136.325V115.405C0 115.181 0.180975 115 0.405168 115H2.94153C3.16572 115 3.34669 115.181 3.34669 115.405V124.308C3.75727 123.114 4.48116 122.155 5.51839 121.431C6.55562 120.707 7.80894 120.346 9.27835 120.346C10.7472 120.346 11.9435 120.678 13.0507 121.344C13.0512 121.345 13.0518 121.344 13.0518 121.344V121.344ZM5.72368 123.942C5.72368 123.941 5.72303 123.941 5.72252 123.941C4.97756 124.382 4.3918 125.008 3.96254 125.821C3.53036 126.634 3.31699 127.568 3.31699 128.624C3.31699 129.681 3.53306 130.64 3.96254 131.444C4.39202 132.247 4.98087 132.868 5.72368 133.308C6.46649 133.748 7.30923 133.97 8.24922 133.97C9.73754 133.97 10.9314 133.495 11.8309 132.546C12.7304 131.598 13.1815 130.291 13.1815 128.627C13.1815 126.963 12.7304 125.68 11.8309 124.721C10.9314 123.762 9.73484 123.282 8.24922 123.282C7.30972 123.282 6.46737 123.5 5.72484 123.943C5.72433 123.943 5.72368 123.943 5.72368 123.942V123.942Z" fill="white"/>
<path d="M21.8305 120.801C21.8305 120.802 21.8307 120.803 21.831 120.804L26.5737 132.442L30.9684 120.811C31.0279 120.654 31.1791 120.549 31.3466 120.549H34.1909C34.4799 120.549 34.6744 120.841 34.5663 121.108L25.1205 144.17C25.0584 144.321 24.9098 144.421 24.745 144.421H21.9035C21.6118 144.421 21.4173 144.122 21.5307 143.854L24.6086 136.741C24.7181 136.488 24.7183 136.201 24.6091 135.948L18.211 121.113C18.0949 120.846 18.2921 120.549 18.5838 120.549H21.4551C21.6194 120.549 21.7676 120.648 21.83 120.799C21.8304 120.8 21.8305 120.8 21.8305 120.801V120.801Z" fill="white"/>
<path d="M25.8402 106.147C25.8402 106.148 25.8383 106.15 25.8366 106.149C24.6398 105.629 23.7026 104.88 23.0172 103.927C22.3864 103.044 22.0473 102.026 22 100.875C22 100.702 22.1342 100.56 22.3076 100.56H25.6352C25.785 100.56 25.9111 100.67 25.9348 100.812C26.0609 101.656 26.4316 102.366 27.0388 102.933C27.7091 103.556 28.6552 103.864 29.8774 103.864C31.0996 103.864 32.1168 103.556 32.8265 102.949C33.5283 102.342 33.8832 101.553 33.8832 100.591C33.8832 99.8422 33.6624 99.2351 33.2287 98.762C32.7871 98.2888 32.2429 97.9261 31.5964 97.6738C30.9419 97.4136 30.043 97.1375 28.8917 96.8379C27.4409 96.4515 26.2581 96.0652 25.3513 95.6709C24.4444 95.2766 23.6717 94.6616 23.0251 93.8258C22.3864 92.9899 22.0631 91.8781 22.0631 90.4903C22.0631 89.205 22.3864 88.0853 23.0251 87.1232C23.6638 86.1612 24.5627 85.4279 25.7139 84.9153C26.8652 84.4028 28.2058 84.1426 29.7197 84.1426C31.8803 84.1426 33.6466 84.6788 35.0265 85.7591C36.3197 86.7763 37.0768 88.1404 37.2818 89.8594C37.3055 90.0408 37.1555 90.1985 36.9742 90.1985H33.5442C33.3944 90.1985 33.2681 90.096 33.2445 89.9462C33.1262 89.2444 32.7556 88.6293 32.1248 88.1168C31.423 87.5412 30.4925 87.2494 29.3334 87.2494C28.2846 87.2494 27.433 87.5176 26.7706 88.0538C26.1083 88.59 25.7771 89.3548 25.7771 90.3641C25.7771 91.0501 25.9821 91.61 26.4001 92.0437C26.818 92.4852 27.3463 92.8322 27.985 93.0845C28.6237 93.3447 29.4989 93.6207 30.6107 93.9204C32.0852 94.3304 33.2839 94.7326 34.2143 95.1347C35.1448 95.5448 35.9333 96.1677 36.5878 97.0114C37.2423 97.8552 37.5656 98.9827 37.5656 100.394C37.5656 101.53 37.2581 102.594 36.651 103.596C36.0438 104.597 35.1527 105.409 33.9935 106.016C32.8265 106.624 31.4545 106.931 29.8774 106.931C28.3807 106.931 27.0415 106.671 25.8439 106.144C25.8421 106.143 25.8402 106.145 25.8402 106.147V106.147Z" fill="white"/>
<path d="M46.1537 92.0367V101.815C46.1537 102.477 46.3113 102.95 46.6188 103.242C46.9263 103.533 47.4546 103.675 48.2038 103.675H50.1435C50.3091 103.675 50.4511 103.81 50.4511 103.983V106.42C50.4511 106.585 50.317 106.727 50.1435 106.727H47.565C45.917 106.727 44.6634 106.341 43.7802 105.576C42.9049 104.803 42.4632 103.557 42.4632 101.822V92.0446H40.689C40.5234 92.0446 40.3816 91.9106 40.3816 91.7371V89.3715C40.3816 89.2059 40.5156 89.0639 40.689 89.0639H42.4632V84.9794C42.4632 84.8138 42.5974 84.6719 42.7709 84.6719H45.8461C46.0116 84.6719 46.1537 84.8059 46.1537 84.9794V89.0639H50.1435C50.3091 89.0639 50.4511 89.198 50.4511 89.3715V91.7371C50.4511 91.9027 50.317 92.0446 50.1435 92.0446H46.1537V92.0367Z" fill="white"/>
<path d="M53.6991 93.1064C53.6991 93.0986 53.701 93.091 53.7047 93.0841C54.4376 91.725 55.4451 90.664 56.7114 89.909C57.9809 89.152 59.3845 88.7734 60.9222 88.7734C62.31 88.7734 63.5242 89.0495 64.5572 89.5935C65.5902 90.1376 66.4182 90.8157 67.0412 91.6279V89.3727C67.0412 89.2071 67.1751 89.0652 67.3486 89.0652H70.424C70.5896 89.0652 70.7314 89.1993 70.7314 89.3727V106.421C70.7314 106.586 70.5975 106.728 70.424 106.728H67.3486C67.183 106.728 67.0412 106.594 67.0412 106.421V104.103C66.4182 104.938 65.5745 105.632 64.51 106.184C63.4376 106.736 62.2232 107.02 60.859 107.02C59.3451 107.02 57.9572 106.634 56.6956 105.853C55.4339 105.072 54.4324 103.984 53.6991 102.581C52.9658 101.185 52.5952 99.5921 52.5952 97.8258C52.5952 96.0639 52.9639 94.4904 53.6935 93.1287C53.6972 93.1218 53.6991 93.1142 53.6991 93.1064V93.1064ZM66.2919 94.6953C65.7873 93.7964 65.1328 93.1183 64.3206 92.6451C63.5084 92.172 62.6333 91.9433 61.6949 91.9433C60.7566 91.9433 59.8812 92.172 59.069 92.6294C58.2569 93.0867 57.6024 93.7649 57.0977 94.648C56.5931 95.5312 56.3408 96.5878 56.3408 97.8022C56.3408 99.0165 56.5931 100.089 57.0977 101.004C57.6024 101.926 58.2648 102.62 59.0848 103.101C59.9049 103.582 60.7802 103.819 61.6949 103.819C62.6096 103.819 63.5084 103.582 64.3206 103.117C65.1328 102.644 65.7873 101.958 66.2919 101.051C66.7966 100.144 67.0412 99.0796 67.0412 97.8652C67.0412 96.6509 66.7887 95.5863 66.2919 94.6953Z" fill="white"/>
<path d="M81.3332 89.5226C81.3321 89.5226 81.3318 89.5212 81.3327 89.5207C82.1441 89.0645 83.0893 88.8128 84.1759 88.7734C84.3494 88.7734 84.4913 88.9075 84.4913 89.081V92.243C84.4913 92.4086 84.3573 92.5505 84.1838 92.5505H83.5609C82.1257 92.5505 81.0454 92.9133 80.312 93.6387C79.5787 94.3642 79.2082 95.6257 79.2082 97.4236V106.413C79.2082 106.578 79.0742 106.72 78.9007 106.72H75.8569C75.6913 106.72 75.5495 106.586 75.5495 106.413V89.3648C75.5495 89.1992 75.6834 89.0573 75.8569 89.0573H78.9007C79.0663 89.0573 79.2082 89.1914 79.2082 89.3648V91.62C79.7437 90.7223 80.4522 90.0212 81.3337 89.5245C81.3346 89.524 81.3343 89.5226 81.3332 89.5226V89.5226Z" fill="white"/>
<path d="M94.8564 97.91C94.851 97.9082 94.8468 97.9148 94.8506 97.919L102.501 106.206C102.682 106.404 102.54 106.719 102.28 106.719H98.1874C98.1006 106.719 98.0139 106.68 97.9587 106.616L91.5164 99.1254V106.411C91.5164 106.577 91.3823 106.719 91.2088 106.719H88.1652C87.9996 106.719 87.8575 106.585 87.8575 106.411V83.3075C87.8575 83.1419 87.9917 83 88.1652 83H91.2088C91.3744 83 91.5164 83.1341 91.5164 83.3075V96.7835L97.8324 89.1742C97.8876 89.1032 97.9744 89.0638 98.069 89.0638H102.296C102.564 89.0638 102.698 89.3792 102.524 89.5763L94.8622 97.9085C94.8607 97.9101 94.8585 97.9107 94.8564 97.91V97.91Z" fill="white"/>
<path d="M118.24 89.6311C119.344 90.2068 120.203 91.0663 120.818 92.1939C121.441 93.3293 121.749 94.6935 121.749 96.2942V106.403C121.749 106.569 121.615 106.711 121.441 106.711H118.429C118.263 106.711 118.121 106.577 118.121 106.403V96.8382C118.121 95.2612 117.727 94.0468 116.939 93.2031C116.15 92.3594 115.07 91.9336 113.706 91.9336C112.341 91.9336 111.253 92.3594 110.449 93.2031C109.644 94.0468 109.25 95.2612 109.25 96.8382V106.403C109.25 106.569 109.116 106.711 108.943 106.711H105.899C105.734 106.711 105.592 106.577 105.592 106.403V89.3551C105.592 89.1895 105.726 89.0475 105.899 89.0475H108.943C109.108 89.0475 109.25 89.1816 109.25 89.3551V91.0662C109.85 90.3408 110.614 89.773 111.545 89.3709C112.475 88.9687 113.461 88.7637 114.51 88.7637C115.898 88.7637 117.144 89.0555 118.24 89.6311Z" fill="white"/>
<path d="M142.188 99.251H128.964C129.075 100.662 129.595 101.79 130.533 102.65C131.472 103.501 132.623 103.935 133.995 103.935C135.895 103.935 137.251 103.17 138.079 101.632C138.135 101.53 138.237 101.467 138.348 101.467H141.667C141.88 101.467 142.03 101.688 141.951 101.885C141.391 103.32 140.477 104.511 139.199 105.457C137.804 106.49 136.061 107.01 133.995 107.01C132.307 107.01 130.793 106.632 129.461 105.875C128.128 105.118 127.079 104.045 126.322 102.673C125.565 101.293 125.187 99.7005 125.187 97.879C125.187 96.0575 125.558 94.4646 126.291 93.0846C127.024 91.7047 128.065 90.6403 129.398 89.899C130.73 89.1499 132.268 88.7793 133.995 88.7793C135.722 88.7793 137.149 89.142 138.45 89.8675C139.751 90.5929 140.768 91.6101 141.494 92.927C142.219 94.2438 142.582 95.7499 142.582 97.461C142.582 98.0209 142.55 98.5256 142.495 98.9908C142.479 99.1406 142.345 99.251 142.196 99.251H142.188ZM138.767 96.303C138.766 96.3023 138.766 96.3013 138.765 96.3003C138.741 94.9527 138.26 93.8808 137.322 93.069C136.384 92.2568 135.217 91.8546 133.829 91.8546C132.568 91.8546 131.487 92.2568 130.596 93.0532C129.705 93.8496 129.161 94.9378 128.996 96.3098H138.764C138.767 96.3098 138.769 96.3055 138.767 96.303V96.303Z" fill="white"/>
<path d="M150.428 92.0367V101.815C150.428 102.477 150.586 102.95 150.893 103.242C151.201 103.533 151.729 103.675 152.478 103.675H154.418C154.584 103.675 154.726 103.81 154.726 103.983V106.42C154.726 106.585 154.591 106.727 154.418 106.727H151.84C150.192 106.727 148.938 106.341 148.055 105.576C147.179 104.803 146.738 103.557 146.738 101.822V92.0446H144.963C144.798 92.0446 144.656 91.9106 144.656 91.7371V89.3715C144.656 89.2059 144.79 89.0639 144.963 89.0639H146.738V84.9794C146.738 84.8138 146.872 84.6719 147.045 84.6719H150.12C150.286 84.6719 150.428 84.8059 150.428 84.9794V89.0556C150.428 89.0559 150.428 89.0562 150.428 89.0565C150.428 89.0583 150.429 89.0639 150.436 89.0639H154.418C154.584 89.0639 154.726 89.198 154.726 89.3715V91.7371C154.726 91.9027 154.591 92.0446 154.418 92.0446H150.436C150.432 92.0446 150.428 92.0411 150.428 92.0367V92.0367Z" fill="white"/>
<defs>
<clipPath id="clip0_160_832">
<rect width="74.9431" height="61.5628" fill="white" transform="translate(51)"/>
</clipPath>
</defs>
</svg>
