<?xml version="1.0" encoding="utf-8"?>
<!-- Generator: Adobe Illustrator 27.5.0, SVG Export Plug-In . SVG Version: 6.00 Build 0)  -->
<svg version="1.1" id="Layer_1" xmlns="http://www.w3.org/2000/svg" xmlns:xlink="http://www.w3.org/1999/xlink" x="0px" y="0px"
	 width="629.8px" height="211.8px" viewBox="0 0 629.8 211.8" style="enable-background:new 0 0 629.8 211.8;" xml:space="preserve"
	>
<style type="text/css">
	.st0{fill:#1B1B50;}
	.st1{fill:#FFFFFF;}
	.st2{fill:#FC4B05;}
	.st3{fill:#1D1D1B;}
</style>
<g>
	<g>
		<g>
			<g>
				<path class="st0" d="M317.3,65.2c1.8,0,3.3,1.5,3.3,3.3v55.7c0,7.3-2.2,13.1-6.6,17.3c-4.4,4.2-10.3,6.4-17.5,6.4
					c-7.2,0-13-2.1-17.5-6.4c-3.7-3.5-5.8-8.1-6.4-13.6c-0.2-1.9,1.3-3.6,3.2-3.6h7.1c1.6,0,2.9,1.1,3.2,2.7
					c0.4,2.4,1.2,4.3,2.5,5.9c1.8,2.1,4.4,3.2,7.8,3.2c3.4,0,6.1-1.1,7.9-3.2c1.8-2.2,2.7-5,2.7-8.5V68.4c0-1.8,1.5-3.3,3.3-3.3
					H317.3z"/>
				<path class="st0" d="M366.7,65.2c1.7,0,3,1.4,3,3v49.1c0,6.2,1.6,10.9,4.9,14c3.3,3.1,7.8,4.7,13.6,4.7c5.9,0,10.4-1.6,13.7-4.7
					c3.3-3.1,4.9-7.8,4.9-14V68.2c0-1.7,1.4-3,3-3h7.4c1.7,0,3,1.4,3,3V117c0,6.7-1.5,12.3-4.4,16.9c-2.9,4.6-6.8,8.1-11.6,10.3
					c-4.9,2.3-10.2,3.4-16.1,3.4c-5.9,0-11.2-1.1-16.1-3.4c-4.8-2.3-8.6-5.7-11.5-10.3c-2.8-4.6-4.2-10.3-4.2-16.9V68.2
					c0-1.7,1.4-3,3-3H366.7z"/>
				<path class="st0" d="M515.7,146.9h-8.6c-1,0-2-0.5-2.6-1.4l-33.7-51c-1.7-2.6-5.7-1.4-5.7,1.7v47.5c0,1.7-1.4,3.1-3.1,3.1h-7.2
					c-1.7,0-3.1-1.4-3.1-3.1V68.2c0-1.7,1.4-3.1,3.1-3.1h8.6c1,0,2,0.5,2.6,1.4l33.7,50.9c1.7,2.6,5.7,1.4,5.7-1.7V68.2
					c0-1.7,1.4-3.1,3.1-3.1h7.2c1.7,0,3.1,1.4,3.1,3.1v75.6C518.8,145.5,517.4,146.9,515.7,146.9z"/>
				<path class="st0" d="M566.8,142.4c-6.4-3.6-11.4-8.5-15.2-14.9c-3.7-6.4-5.6-13.6-5.6-21.6c0-8,1.9-15.2,5.6-21.5
					c3.7-6.3,8.8-11.3,15.2-14.9c6.4-3.6,13.4-5.3,21-5.3c7.7,0,14.7,1.8,21.1,5.3c6.4,3.6,11.4,8.5,15.1,14.9
					c3.7,6.4,5.5,13.5,5.5,21.5c0,8-1.8,15.2-5.5,21.6c-3.7,6.4-8.7,11.4-15.1,14.9c-6.4,3.6-13.4,5.4-21.1,5.4
					C580.2,147.7,573.2,145.9,566.8,142.4z M602.3,132.4c4.2-2.5,7.5-6,9.9-10.6c2.4-4.6,3.6-9.9,3.6-15.9c0-6-1.2-11.3-3.6-15.9
					c-2.4-4.5-5.7-8-9.9-10.5c-4.2-2.4-9.1-3.6-14.5-3.6c-5.4,0-10.2,1.2-14.5,3.6c-4.2,2.4-7.5,5.9-9.9,10.5
					c-2.4,4.5-3.6,9.8-3.6,15.9c0,6,1.2,11.3,3.6,15.9c2.4,4.6,5.7,8.1,9.9,10.6c4.2,2.5,9.1,3.7,14.5,3.7
					C593.2,136.1,598,134.8,602.3,132.4z"/>
			</g>
		</g>
		<g>
			<circle class="st0" cx="106.1" cy="105.9" r="105.9"/>
			<g>
				<g>
					<path class="st1" d="M44.3,101.3l2.2-7.2c0.3-1,1.7-1,2,0l2.3,7.2c0.5,1.5,1.6,2.6,3.1,3l7.2,2.2c1,0.3,1,1.7,0,2l-7.1,2.3
						c-1.5,0.5-2.6,1.6-3,3.1l-2.2,7.2c-0.3,1-1.7,1-2,0l-2.3-7.2c-0.5-1.4-1.6-2.6-3.1-3l-7.2-2.2c-1-0.3-1-1.7,0-2l7.2-2.3
						C42.7,103.9,43.8,102.8,44.3,101.3z"/>
				</g>
				<path class="st2" d="M73.5,137.5L73.5,137.5c0,0-10.9,23-8.2,43L88,164.2l0,0C81.4,155.6,76.7,146.5,73.5,137.5z"/>
				<g>
					<path class="st3" d="M106.4,169.1C106.4,169.1,106.4,169.1,106.4,169.1C106.4,169.1,106.4,169.1,106.4,169.1L106.4,169.1z"/>
					<path class="st1" d="M133.5,72.4H79.3c0,0-2.1,9-2.3,22h14.4c0-2.8,0.2-5.4,0.4-7.7H121c1.2,14.5,0.5,40.5-14.6,61.1
						c-5.7-7.8-9.4-16.4-11.6-24.9H79.9c3.6,15.8,11.2,32.6,26.5,46C147.4,132.9,133.5,72.4,133.5,72.4z"/>
				</g>
				<path class="st3" d="M106.4,23.3C106.4,23.3,106.4,23.3,106.4,23.3C106.4,23.3,106.4,23.3,106.4,23.3L106.4,23.3z"/>
				<path class="st2" d="M139.3,137.5L139.3,137.5c0,0,10.9,23,8.2,43l-22.7-16.3l0,0C131.5,155.6,136.1,146.5,139.3,137.5z"/>
				<circle class="st1" cx="151.4" cy="67.4" r="6"/>
				<path class="st2" d="M130.9,62c-4.2-13.6-11.6-27.3-24.5-38.7C93.5,34.7,86,48.5,81.9,62H130.9z"/>
			</g>
		</g>
	</g>
</g>
</svg>
