<?xml version="1.0" encoding="UTF-8"?><svg id="Layer_1" xmlns="http://www.w3.org/2000/svg" viewBox="0 0 453.31 60.24"><defs><style>.cls-1{fill:#21bcec;}.cls-2{fill:#ffa726;}.cls-3{fill:#00aceb;}.cls-4{fill:#009cdd;}</style></defs><path class="cls-3" d="m36.87.76l-4.34,16.18c-.78-.15-1.58-.23-2.41-.23-1.2,0-2.36.16-3.47.45-1.95.52-3.72,1.47-5.21,2.74l-11.83-11.83c1.53-1.44,3.22-2.7,5.04-3.79l.91-.53c2.12-1.17,4.39-2.1,6.78-2.73,2.49-.66,5.1-1.02,7.79-1.02,2.32,0,4.58.26,6.75.76Z"/><path class="cls-1" d="m119.72,23.37c.51,2.17.77,4.42.77,6.74,0,2.7-.36,5.31-1.02,7.79-.64,2.39-1.57,4.66-2.73,6.76l-.54.94c-1.09,1.8-2.36,3.49-3.78,5.03l-11.83-11.83c1.26-1.49,2.22-3.26,2.73-5.22.3-1.1.45-2.27.45-3.47,0-.8-.06-1.58-.21-2.33l16.16-4.41Z"/><path class="cls-4" d="m85.88,42.75l-4.36,16.18c-2.01-.63-3.93-1.45-5.74-2.45l-.89-.51c-2.13-1.28-4.08-2.81-5.84-4.55,0-.01-.01-.01-.01-.01l-.88-.92c-.68-.73-1.32-1.51-1.92-2.31l11.67-11.66,2.58,2.69c.12.13.25.26.38.39,1.38,1.39,3.09,2.49,4.99,3.16Z"/><path class="cls-4" d="m54.24,12.06l-11.67,11.65h-.01s-2.57-2.68-2.57-2.68c-.13-.13-.25-.26-.38-.39-1.39-1.39-3.1-2.49-4.99-3.16L38.96,1.31c2.01.63,3.94,1.45,5.74,2.44l.89.52c2.13,1.28,4.1,2.81,5.84,4.55.01,0,.01.01.01.01l.88.91c.68.75,1.33,1.52,1.93,2.32Z"/><path class="cls-3" d="m99.04,40.32l11.83,11.84c-1.53,1.44-3.22,2.7-5.04,3.79l-.91.53c-2.12,1.17-4.39,2.1-6.78,2.73-2.49.66-5.1,1.02-7.79,1.02-2.32,0-4.58-.26-6.75-.76l4.36-16.18c.78.15,1.58.23,2.4.23,1.2,0,2.37-.16,3.47-.45,1.95-.52,3.72-1.47,5.21-2.76Z"/><path class="cls-2" d="m37.45,41.35l11.79,12.05c-1.13.94-2.35,1.79-3.61,2.55l-.95.54c-2.11,1.18-4.38,2.1-6.75,2.73-2.49.66-5.1,1.02-7.8,1.02s-5.31-.36-7.79-1.02c-2.38-.64-4.64-1.56-6.74-2.72l-.97-.56c-2.11-1.26-4.05-2.79-5.78-4.52s-3.26-3.69-4.54-5.8l-.53-.93c-1.01-1.79-1.82-3.72-2.43-5.73l16.15-4.42c.66,1.92,1.76,3.64,3.17,5.06,1.64,1.64,3.71,2.86,6.01,3.47,1.11.3,2.27.45,3.47.45s2.37-.15,3.48-.45c1.38-.37,2.68-.95,3.85-1.72Z"/><path class="cls-1" d="m8.07,9.6l11.83,11.83c-1.26,1.49-2.22,3.26-2.73,5.22-.3,1.1-.45,2.27-.45,3.47,0,.8.06,1.58.21,2.33L.77,36.86c-.51-2.17-.77-4.43-.77-6.74,0-2.7.36-5.31,1.03-7.8.64-2.38,1.56-4.65,2.72-6.75l.54-.94c1.09-1.8,2.36-3.49,3.78-5.03Z"/><path class="cls-2" d="m119.17,21.29l-16.15,4.41c-.67-1.93-1.76-3.65-3.18-5.06-1.64-1.64-3.71-2.86-6.01-3.48-1.11-.29-2.27-.45-3.47-.45s-2.37.16-3.47.45c-1.38.38-2.68.96-3.86,1.73l-11.79-12.05c1.13-.94,2.35-1.79,3.61-2.55l.95-.55c2.11-1.17,4.38-2.09,6.75-2.72,2.49-.66,5.1-1.02,7.8-1.02s5.31.36,7.79,1.02c2.38.64,4.65,1.56,6.75,2.72l.96.56c2.12,1.26,4.05,2.79,5.78,4.52s3.26,3.69,4.54,5.8l.53.92c1.01,1.82,1.83,3.73,2.44,5.75Z"/><polygon points="143.24 44.76 143.24 15.27 147.93 15.27 160.15 34.72 160.15 15.27 165.99 15.27 165.99 44.76 161.29 44.76 149.11 25.32 149.11 44.76 143.24 44.76"/><path d="m185,44.96c-.63,0-1.35-.07-2.17-.2-.81-.11-1.6-.37-2.37-.8-.74-.43-1.35-1.06-1.85-1.91-.47-.88-.71-2.07-.71-3.59v-16.46c0-1.3.2-2.39.59-3.27.39-.88.92-1.57,1.58-2.07.66-.5,1.38-.86,2.17-1.08.79-.21,1.56-.32,2.33-.32,1.97,0,3.71.03,5.2.08,1.52.05,2.89.12,4.1.2,1.21.05,2.31.13,3.31.24v4.94h-10.88c-.81,0-1.45.2-1.89.6-.45.4-.67,1.01-.67,1.83v4.26l11.55.32v4.66l-11.55.32v4.06c0,.69.11,1.24.32,1.63.24.37.54.64.91.8.39.13.8.2,1.22.2h11v4.94c-1.16.13-2.44.24-3.86.32-1.39.08-2.81.15-4.26.2-1.42.05-2.77.08-4.06.08Z"/><polygon points="214.64 44.76 214.64 20.57 206.63 20.57 206.63 15.27 228.52 15.27 228.52 20.57 220.47 20.57 220.47 44.76 214.64 44.76"/><polygon points="238.76 44.76 238.76 15.27 244.6 15.27 244.6 27.55 255.6 27.55 255.6 15.27 261.48 15.27 261.48 44.76 255.6 44.76 255.6 32.85 244.6 32.85 244.6 44.76 238.76 44.76"/><path d="m280.69,44.96c-.63,0-1.35-.07-2.17-.2-.81-.11-1.6-.37-2.37-.8-.74-.43-1.35-1.06-1.85-1.91-.47-.88-.71-2.07-.71-3.59v-16.46c0-1.3.2-2.39.59-3.27.39-.88.92-1.57,1.58-2.07.66-.5,1.38-.86,2.17-1.08.79-.21,1.56-.32,2.33-.32,1.97,0,3.71.03,5.2.08,1.52.05,2.89.12,4.1.2,1.21.05,2.31.13,3.31.24v4.94h-10.88c-.81,0-1.45.2-1.89.6-.45.4-.67,1.01-.67,1.83v4.26l11.55.32v4.66l-11.55.32v4.06c0,.69.11,1.24.32,1.63.24.37.54.64.91.8.39.13.8.2,1.22.2h11v4.94c-1.16.13-2.45.24-3.86.32-1.39.08-2.81.15-4.26.2-1.42.05-2.77.08-4.06.08Z"/><path d="m304.21,44.76V15.27h12.07c1.16,0,2.23.15,3.23.44,1,.27,1.88.74,2.64,1.43.76.69,1.35,1.65,1.77,2.87.45,1.22.67,2.79.67,4.7,0,1.35-.13,2.51-.39,3.47-.26.96-.62,1.74-1.06,2.35-.42.61-.91,1.1-1.46,1.47-.55.37-1.12.68-1.7.92l5.44,11.84h-5.95l-4.69-10.92h-1.1c-.39-.03-.8-.04-1.22-.04h-1.26c-.42,0-.8-.01-1.14-.04v11h-5.84Zm5.84-15.66h5.21c.53,0,1-.07,1.42-.2.42-.13.79-.36,1.1-.68.32-.35.55-.8.71-1.35.18-.56.28-1.28.28-2.15,0-.82-.09-1.5-.28-2.03-.16-.56-.39-.98-.71-1.28-.32-.32-.68-.53-1.1-.64-.42-.13-.89-.2-1.42-.2h-5.21v8.53Z"/><polygon points="335.24 44.76 338.63 15.27 344.23 15.27 350.94 37.87 357.6 15.27 363.16 15.27 366.59 44.76 360.95 44.76 358.43 23.04 359.34 23.12 353.62 44.76 348.14 44.76 342.34 23.12 343.33 23.08 340.88 44.76 335.24 44.76"/><rect x="377.94" y="15.27" width="5.84" height="29.49"/><polygon points="396.13 44.76 396.13 15.27 400.82 15.27 413.05 34.72 413.05 15.27 418.88 15.27 418.88 44.76 414.19 44.76 402.01 25.32 402.01 44.76 396.13 44.76"/><path d="m430.8,44.76V15.27h12.34c1.97,0,3.61.36,4.93,1.08,1.31.69,2.35,1.7,3.12,3.03.79,1.3,1.34,2.86,1.66,4.66.32,1.81.47,3.8.47,5.98,0,3.32-.38,6.07-1.14,8.25-.74,2.18-1.85,3.81-3.35,4.9-1.5,1.06-3.39,1.59-5.68,1.59h-12.34Zm5.84-5.3h5.91c1.21,0,2.17-.35,2.88-1.04.71-.72,1.22-1.78,1.54-3.19.34-1.41.51-3.15.51-5.22,0-1.91-.11-3.48-.32-4.7-.21-1.25-.52-2.22-.95-2.91-.39-.69-.91-1.17-1.54-1.43-.6-.27-1.31-.4-2.13-.4h-5.91v18.89Z"/></svg>