<svg xmlns="http://www.w3.org/2000/svg" width="100%" height="100%" viewBox="0 0 132 32" fill="none" preserveAspectRatio="xMidYMid meet" aria-hidden="true" role="img">
<g clip-path="url(#clip0_4002_5644)">
<path d="M19.8831 31.5114C22.746 30.8029 25.2083 29.3862 27.285 27.3198C29.1541 25.4602 30.4743 23.2759 31.2456 20.7669C32.195 17.6971 32.2691 14.583 31.3494 11.5131C29.8661 6.48034 26.6472 2.96773 21.7669 0.990053C21.3375 0.822849 20.8963 0.684877 20.4544 0.546701C20.1942 0.465338 19.9338 0.383902 19.6754 0.296387C19.668 0.318524 19.6643 0.336973 19.6606 0.355422C19.6569 0.373871 19.6531 0.392319 19.6457 0.414458C22.8795 3.07105 22.5235 7.2183 20.1797 9.46163C17.8805 11.6607 14.2908 11.6607 11.9916 9.53542C9.57378 7.29209 9.26222 2.62828 12.5404 0.311145C12.4361 0.339176 12.332 0.366676 12.2279 0.394148C11.7837 0.51132 11.3413 0.628005 10.9087 0.78343C6.45867 2.39215 3.22489 5.32916 1.37067 9.63874C-0.424149 13.7565 -0.453778 17.9776 1.26696 22.1395C2.91348 26.1392 5.79111 29.0023 9.76652 30.7291C10.5676 31.0834 11.3686 31.349 12.1696 31.5556L12.481 31.4819L9.01007 23.8663L13.9052 29.5041L16.0116 13.3875L18.281 29.5041L22.9833 23.8663L19.6309 31.4819L19.8386 31.5262C19.8534 31.5113 19.8682 31.5114 19.8831 31.5114Z" fill="currentColor"></path>
<path d="M15.6704 8.23652C15.4775 6.89347 14.4095 5.81606 13.0448 5.62419C12.7036 5.56517 12.7036 5.06336 13.0448 5.01908C14.3947 4.82721 15.4775 3.76458 15.6704 2.40677C15.7148 2.05256 16.234 2.05256 16.2785 2.40677C16.4714 3.74982 17.5394 4.82721 18.9041 5.01908C19.2601 5.06336 19.2601 5.57992 18.9041 5.62419C17.5542 5.81606 16.4714 6.8787 16.2785 8.23652C16.234 8.59072 15.7148 8.59072 15.6704 8.23652Z" fill="currentColor"></path>
</g>
<g clip-path="url(#clip1_4002_5644)">
<path fill-rule="evenodd" clip-rule="evenodd" d="M84.9338 20.2704L84.9338 20.2663V20.2633C84.9354 19.025 84.9374 17.4528 84.9374 16.0853H84.9429V6.34302C84.9429 6.15759 85.0893 6.01111 85.2706 6.01111C85.8657 6.01528 86.4822 6.01066 87.1072 6.00598C88.7062 5.99401 90.3603 5.98162 91.8515 6.11495C95.1686 6.41163 97.4715 8.67382 98.0957 12.0004C98.4856 14.0845 98.4124 16.1502 97.5795 18.1268C96.58 20.4984 94.7823 21.928 92.2781 22.2766C91.2562 22.4192 90.2144 22.4201 89.1739 22.421C88.7661 22.4213 88.3585 22.4217 87.9524 22.4305L85.2596 22.4398C85.0784 22.4398 84.9319 22.2933 84.9319 22.1098C84.9319 21.7363 84.9328 21.074 84.9338 20.2704ZM90.7678 20.0589C92.7321 19.9347 94.2167 19.0354 94.9855 17.1385L94.9873 17.1348C95.5786 15.6699 95.6354 14.1346 95.3644 12.5974C94.9324 10.1461 93.5814 8.78322 91.1541 8.43091C90.4145 8.32336 88.7542 8.33449 88.0512 8.34561C87.87 8.34932 87.7291 8.49766 87.7291 8.67938C87.7395 9.90476 87.7369 11.3455 87.7346 12.6742L87.7346 12.6831C87.7336 13.2211 87.7327 13.7406 87.7327 14.2199V19.7456C87.7327 19.9291 87.8792 20.0775 88.0604 20.0775C88.3245 20.0763 88.6086 20.0789 88.8983 20.0815H88.8987C89.5465 20.0874 90.2227 20.0935 90.7678 20.0589Z" fill="currentColor"></path>
<path d="M131.53 15.0766L131.529 15.0803H131.347C131.347 15.0803 131.332 15.3677 131.315 15.5123C131.189 16.6545 130.951 17.7671 130.411 18.7888C130.05 19.473 129.578 20.0589 128.859 20.3871C127.51 21.0065 126.457 20.3408 126.453 18.8648C126.451 17.9988 126.452 17.0469 126.452 16.0787V16.0782C126.453 14.7788 126.454 13.4499 126.448 12.2599C126.446 12.0764 126.594 11.928 126.776 11.928L129.446 11.9317C129.628 11.9317 129.774 11.7834 129.774 11.5998V9.86796C129.774 9.68439 129.628 9.53605 129.446 9.53605H126.781C126.6 9.53605 126.453 9.38771 126.453 9.20414C126.453 8.79578 126.454 8.22213 126.454 7.67539L126.454 7.6628V7.64936C126.455 7.15048 126.455 6.67663 126.455 6.37454C126.455 6.19097 126.309 6.04263 126.128 6.04263H124.196C124.015 6.04263 123.869 6.19097 123.869 6.37454L123.874 9.20228C123.874 9.38585 123.728 9.53419 123.546 9.53419H122.032C121.851 9.53419 121.705 9.68068 121.705 9.86425L121.701 11.5887C121.699 11.7723 121.848 11.9206 122.029 11.9206C122.309 11.9195 122.68 11.9205 123.017 11.9214L123.017 11.9214C123.218 11.922 123.407 11.9225 123.556 11.9225C123.737 11.9243 123.88 12.0727 123.878 12.2544V19.2468C123.881 19.6974 123.925 20.1572 124.028 20.5948C124.291 21.7222 124.978 22.4417 126.128 22.6642C127.709 22.9701 129.316 22.1747 130.21 20.6263C131.165 18.9734 131.443 16.952 131.529 15.0803H131.531L131.53 15.0766Z" fill="currentColor"></path>
<path d="M113.138 18.3085C113.099 18.1658 112.969 18.0675 112.823 18.0675V18.0693H111.087C110.886 18.0693 110.732 18.2529 110.763 18.455C110.93 19.5156 111.327 20.5763 112.127 21.2976C113.652 22.6697 115.484 22.896 117.414 22.6382C118.525 22.4899 119.525 22.0504 120.347 21.2457C122.448 19.1819 121.758 16.0723 118.972 15.2638C118.303 15.0695 117.604 14.9813 116.905 14.8931C116.583 14.8526 116.262 14.8121 115.944 14.7613C115.754 14.7308 115.563 14.7052 115.372 14.6797C114.961 14.6247 114.551 14.5698 114.152 14.4647C113.416 14.27 113.13 13.7786 113.317 13.0313C113.396 12.7105 113.59 12.3712 113.828 12.1468C114.897 11.1437 117.262 11.2512 118.25 12.3323C118.443 12.5418 118.589 12.8051 118.723 13.061C118.849 13.2835 118.937 13.5042 118.994 13.6599C119.041 13.7916 119.164 13.8769 119.301 13.8769H120.976C121.181 13.8769 121.337 13.6859 121.298 13.4819C121.037 12.0653 120.334 10.7154 119.025 10.0404C117.266 9.13367 115.435 9.07805 113.606 9.7771C112.235 10.3 111.309 11.2957 111.018 12.7828C110.666 14.5815 111.179 16.0241 113.121 16.471C113.703 16.6058 114.298 16.6843 114.893 16.7629C115.215 16.8054 115.536 16.8479 115.856 16.8993C116.06 16.932 116.264 16.961 116.469 16.9901C117.066 17.0748 117.664 17.1597 118.234 17.335C119.105 17.6021 119.444 18.468 119.054 19.2709C118.904 19.5805 118.628 19.8661 118.342 20.0645C117.645 20.5466 116.837 20.6245 116.014 20.58C114.3 20.4687 113.487 19.6492 113.138 18.3085Z" fill="currentColor"></path>
<path d="M109.581 22.4509C109.762 22.4509 109.908 22.3026 109.908 22.119H109.91V9.84942C109.912 9.66399 109.764 9.51565 109.583 9.51565H107.675C107.496 9.51565 107.349 9.66214 107.349 9.84571V19.7678C107.349 19.9495 107.203 20.096 107.023 20.096H102.366C102.185 20.096 102.039 19.9495 102.039 19.766L102.039 19.1157C102.039 17.0408 102.038 12.2013 102.046 9.84756C102.046 9.66399 101.9 9.5175 101.718 9.5175H99.7579C99.5766 9.5175 99.4302 9.66399 99.4302 9.84756C99.4412 13.6098 99.4412 18.3289 99.4302 22.1209C99.4302 22.3044 99.5766 22.4509 99.7579 22.4509H109.581Z" fill="currentColor"></path>
<path d="M77.4375 26C76.8206 25.9925 76.2055 25.9888 75.5886 25.9888C74.9717 25.9888 74.3364 25.9925 73.7104 26H73.639C73.4907 26 73.3498 25.9925 73.2527 25.8906C73.1685 25.8034 73.1374 25.668 73.1447 25.4418C73.1447 25.4418 73.1539 24.524 73.1484 24.0511C73.1429 23.8787 73.1777 23.7582 73.2582 23.6766C73.3626 23.5672 73.5182 23.5542 73.6262 23.5542L75.9163 23.5616L75.9178 23.5616C76.1929 23.5579 76.2424 23.5572 76.3831 23.2037C76.6759 22.2488 76.6686 21.5627 76.3556 20.7635C75.2993 18.0674 72.0262 9.51006 72.0262 9.51006L74.3548 9.5045C74.6788 9.5045 74.8637 9.638 74.9735 9.95323C75.4889 11.4342 76.3667 13.8473 77.0752 15.7952L77.0763 15.7981C77.5223 17.0244 77.9011 18.0659 78.08 18.5737C78.2397 18.1114 78.5616 17.2066 78.9452 16.1282L78.9454 16.1278L78.9457 16.1267C79.6746 14.0777 80.6265 11.4021 81.1133 9.9421C81.2176 9.62873 81.3824 9.50264 81.6826 9.50264L84.0605 9.51006C84.0605 9.51006 79.4017 21.9614 78.102 25.5104C78.0086 25.7645 77.8658 25.9981 77.4539 25.9981H77.4393L77.4375 26Z" fill="currentColor"></path>
<path d="M71.2372 21.8112V15.9722L71.2354 15.974C71.2354 15.5325 71.235 14.9177 71.2344 14.2065V14.2034C71.2326 11.7102 71.2299 8.03506 71.2427 6.48764C71.2464 6.1205 71.1311 5.99812 70.7741 6.01295C70.2084 6.0111 69.6977 6.0111 69.1284 6.01295C68.8007 6.01481 68.6634 6.10938 68.6634 6.46168C68.6726 10.4854 68.6708 18.0267 68.6634 22.0504C68.6634 22.3619 68.7769 22.4621 69.0698 22.4546C69.4236 22.4443 69.7782 22.4466 70.1325 22.4489C70.2842 22.4499 70.4359 22.4509 70.5874 22.4509C71.0206 22.4497 71.2372 22.2365 71.2372 21.8112Z" fill="currentColor"></path>
<path d="M57.1454 9.85126C57.1454 9.66769 57.2937 9.51935 57.4749 9.51935H67.2978C67.4791 9.51935 67.6255 9.66583 67.6255 9.84941C67.6145 13.6414 67.6145 18.3604 67.6255 22.1227C67.6255 22.3063 67.4791 22.4528 67.2978 22.4528H65.3373C65.156 22.4528 65.0096 22.3063 65.0096 22.1227C65.0177 19.7686 65.0172 14.928 65.017 12.8536L65.0169 12.2043C65.0169 12.0207 64.8705 11.8743 64.6892 11.8743H60.0322C59.8528 11.8743 59.7064 12.0207 59.7064 12.2025V22.1246C59.7064 22.3081 59.5599 22.4546 59.3805 22.4546H57.4731C57.2918 22.4546 57.1436 22.3063 57.1454 22.1209V9.85126Z" fill="currentColor"></path>
<path fill-rule="evenodd" clip-rule="evenodd" d="M40 14.3108C39.9835 18.926 43.5422 22.564 48.0802 22.5715C52.6732 22.5789 56.1989 19.0094 56.208 14.3386C56.2172 9.77339 52.6713 6.17985 48.148 6.16872C43.5989 6.1576 40.0165 9.74002 40 14.3108ZM48.2084 19.9403C45.144 19.9588 42.7532 17.5168 42.7404 14.3516C42.7276 11.2809 45.1165 8.80176 48.1059 8.78878C51.0659 8.7758 53.4896 11.2624 53.5079 14.333C53.5262 17.3703 51.1135 19.9217 48.2084 19.9403Z" fill="currentColor"></path>
</g>
<defs>
<clipPath id="clip0_4002_5644">
<rect width="32" height="32" fill="currentColor" transform="matrix(-1 0 0 1 32 0)"></rect>
</clipPath>
<clipPath id="clip1_4002_5644">
<rect width="91.5295" height="20" fill="currentColor" transform="translate(40 6)"></rect>
</clipPath>
</defs>
</svg>