<svg width="122" height="17" viewBox="0 0 122 17" fill="none" xmlns="http://www.w3.org/2000/svg"><path d="M39.2734 4.90402V0.525391H41.0523C41.1891 0.525391 41.3259 0.552757 41.4628 0.580124C41.5996 0.60749 41.7364 0.68959 41.8459 0.771689C41.9554 0.881155 42.0648 1.01799 42.1196 1.20955C42.2017 1.40112 42.229 1.64742 42.229 1.94845C42.229 2.24948 42.2017 2.52314 42.1196 2.71471C42.0375 2.90627 41.9554 3.0431 41.8459 3.15257C41.7364 3.26204 41.5996 3.31677 41.4628 3.3715C41.3259 3.39887 41.1891 3.42623 41.0796 3.42623C41.0249 3.42623 40.9428 3.42623 40.8333 3.42623C40.7239 3.42623 40.6144 3.42623 40.5049 3.39887C40.3955 3.39887 40.286 3.3715 40.1765 3.3715C40.0671 3.3715 39.985 3.34414 39.9302 3.34414V4.87666H39.2734V4.90402ZM39.8481 2.87891H40.9428C41.0796 2.87891 41.1891 2.85154 41.2712 2.79681C41.3533 2.74207 41.4628 2.63261 41.5175 2.52314C41.5722 2.38631 41.5996 2.19474 41.5996 1.97581C41.5996 1.72952 41.5722 1.56532 41.5175 1.42848C41.4628 1.29165 41.3807 1.20955 41.2986 1.15482C41.2165 1.10009 41.107 1.07272 40.9975 1.07272H39.8755V2.87891H39.8481Z" fill="#8F9198"></path><path d="M45.1811 4.92946C44.9074 4.92946 44.6612 4.90209 44.4422 4.84736C44.2233 4.79263 44.0591 4.68316 43.8949 4.54633C43.7581 4.4095 43.6486 4.1632 43.5665 3.88953C43.4844 3.5885 43.457 3.20537 43.457 2.74014C43.457 2.27491 43.4844 1.89178 43.5665 1.59075C43.6486 1.28972 43.7581 1.07079 43.8949 0.90659C44.0317 0.742392 44.2233 0.632926 44.4422 0.578193C44.6612 0.52346 44.9074 0.496094 45.1811 0.496094C45.4821 0.496094 45.7285 0.52346 45.9474 0.578193C46.1663 0.632926 46.3305 0.742392 46.4947 0.90659C46.6315 1.07079 46.741 1.28972 46.8231 1.59075C46.9052 1.89178 46.9326 2.27491 46.9326 2.74014C46.9326 3.20537 46.9052 3.5885 46.8231 3.88953C46.741 4.19056 46.6315 4.4095 46.4947 4.54633C46.3579 4.68316 46.1663 4.79263 45.9474 4.84736C45.7285 4.90209 45.4821 4.92946 45.1811 4.92946ZM45.1811 4.38213C45.3727 4.38213 45.5643 4.35476 45.7011 4.3274C45.8379 4.27266 45.9747 4.19056 46.0568 4.0811C46.1389 3.97163 46.221 3.80743 46.2484 3.5885C46.2758 3.36957 46.3031 3.09591 46.3031 2.74014C46.3031 2.35701 46.2758 2.05598 46.2484 1.83705C46.1937 1.61812 46.1389 1.45392 46.0568 1.31709C45.9747 1.20762 45.8653 1.12552 45.7011 1.09816C45.5643 1.07079 45.3727 1.04342 45.1811 1.04342C44.9895 1.04342 44.8254 1.07079 44.6885 1.09816C44.5517 1.12552 44.4422 1.20762 44.3328 1.31709C44.2507 1.42655 44.1686 1.59075 44.1412 1.83705C44.0865 2.05598 44.0865 2.35701 44.0865 2.74014C44.0865 3.09591 44.1138 3.36957 44.1412 3.5885C44.1686 3.80743 44.2507 3.97163 44.3328 4.0811C44.4149 4.19056 44.5243 4.27266 44.6885 4.3274C44.798 4.38213 44.9622 4.38213 45.1811 4.38213Z" fill="#8F9198"></path><path d="M49.1259 4.904L48.0312 0.552734H48.6333L49.509 4.05564L50.4942 0.552734H51.0689L52.0541 4.05564L52.9298 0.552734H53.5319L52.4372 4.904H51.8078L50.7679 1.40109L49.728 4.904H49.1259Z" fill="#8F9198"></path><path d="M55.6649 4.90209C55.5554 4.90209 55.4733 4.90209 55.3638 4.87472C55.2543 4.84736 55.1449 4.81999 55.0354 4.76526C54.9259 4.71053 54.8439 4.62843 54.7891 4.49159C54.7344 4.38213 54.707 4.21793 54.707 3.999V1.39919C54.707 1.23499 54.7344 1.07079 54.7891 0.961324C54.8439 0.851858 54.926 0.742392 55.0081 0.687659C55.0902 0.60556 55.1996 0.578193 55.3091 0.550827C55.4185 0.52346 55.528 0.496094 55.6375 0.496094C55.8838 0.496094 56.1301 0.496093 56.349 0.52346C56.5679 0.52346 56.7595 0.52346 56.9511 0.550827C57.1426 0.550827 57.3068 0.578193 57.471 0.578193V1.07079H55.8017C55.6649 1.07079 55.528 1.09816 55.4459 1.18025C55.3638 1.26235 55.3091 1.37182 55.3091 1.53602V2.43911L57.1974 2.46648V2.95907L55.3091 3.01381V3.9169C55.3091 4.05373 55.3364 4.1632 55.3638 4.21793C55.4185 4.27266 55.4733 4.3274 55.528 4.35476C55.6101 4.38213 55.6922 4.38213 55.7743 4.38213H57.4437V4.87472C57.2521 4.87472 57.0605 4.90209 56.869 4.90209C56.6774 4.90209 56.4585 4.92946 56.2669 4.92946C56.0753 4.92946 55.8564 4.90209 55.6649 4.90209Z" fill="#8F9198"></path><path d="M58.8945 4.90402V0.525391H60.646C60.7828 0.525391 60.947 0.552757 61.0838 0.580124C61.2207 0.60749 61.3575 0.68959 61.467 0.771689C61.5764 0.853788 61.6585 0.990621 61.7406 1.18219C61.7954 1.34638 61.8227 1.56532 61.8227 1.86635C61.8227 2.08528 61.7954 2.27684 61.7406 2.44104C61.6859 2.57787 61.6312 2.71471 61.5491 2.79681C61.467 2.87891 61.3849 2.961 61.3028 2.98837C61.2207 3.0431 61.1112 3.07047 61.0291 3.09784L61.9048 4.90402H61.3028L60.5091 3.17994C60.4544 3.17994 60.3723 3.17994 60.2902 3.17994C60.2081 3.17994 60.126 3.17994 60.0165 3.17994C59.9071 3.17994 59.825 3.17994 59.7429 3.17994C59.6608 3.17994 59.5787 3.17994 59.4966 3.17994V4.93139H58.8945V4.90402ZM59.4966 2.68734H60.5365C60.6186 2.68734 60.7281 2.68734 60.8102 2.65997C60.8923 2.63261 60.947 2.60524 61.0291 2.52314C61.1112 2.44104 61.1386 2.38631 61.1659 2.27684C61.1933 2.16738 61.2207 2.03055 61.2207 1.86635C61.2207 1.70215 61.1933 1.56532 61.1659 1.45585C61.1386 1.34638 61.0838 1.26428 61.0291 1.20955C60.9744 1.15482 60.8923 1.12745 60.8102 1.10009C60.7281 1.07272 60.646 1.07272 60.5639 1.07272H59.524V2.68734H59.4966Z" fill="#8F9198"></path><path d="M64.2274 4.90209C64.1179 4.90209 64.0358 4.90209 63.9263 4.87472C63.8168 4.84736 63.7074 4.81999 63.5979 4.76526C63.4885 4.71053 63.4064 4.62843 63.3516 4.49159C63.2969 4.38213 63.2695 4.21793 63.2695 3.999V1.39919C63.2695 1.23499 63.2969 1.07079 63.3516 0.961324C63.4064 0.851858 63.4885 0.742392 63.5706 0.687659C63.6527 0.60556 63.7621 0.578193 63.8716 0.550827C63.9811 0.52346 64.0905 0.496094 64.2 0.496094C64.4463 0.496094 64.6926 0.496093 64.9115 0.52346C65.1304 0.52346 65.322 0.52346 65.5136 0.550827C65.7051 0.550827 65.8693 0.578193 66.0335 0.578193V1.07079H64.3642C64.2274 1.07079 64.0905 1.09816 64.0084 1.18025C63.9263 1.26235 63.8716 1.37182 63.8716 1.53602V2.43911L65.7599 2.46648V2.95907L63.8716 3.01381V3.9169C63.8716 4.05373 63.8989 4.1632 63.9263 4.21793C63.981 4.27266 64.0358 4.3274 64.0905 4.35476C64.1726 4.38213 64.2547 4.38213 64.3368 4.38213H66.0062V4.87472C65.8146 4.87472 65.623 4.90209 65.4315 4.90209C65.2399 4.90209 65.021 4.92946 64.8294 4.92946C64.6379 4.92946 64.4189 4.90209 64.2274 4.90209Z" fill="#8F9198"></path><path d="M67.4609 4.90402V0.525391H69.2124C69.4861 0.525391 69.705 0.580124 69.8966 0.662223C70.0881 0.771689 70.2249 0.908521 70.3344 1.10009C70.4439 1.29165 70.526 1.51058 70.5807 1.78425C70.6355 2.05791 70.6628 2.35894 70.6628 2.71471C70.6628 3.17994 70.6081 3.56307 70.4986 3.89146C70.3891 4.21986 70.225 4.46616 70.006 4.63036C69.7871 4.79456 69.5134 4.87666 69.185 4.87666H67.4609V4.90402ZM68.063 4.35669H69.185C69.404 4.35669 69.5681 4.30196 69.705 4.16513C69.8418 4.0283 69.9513 3.83673 70.006 3.59043C70.0608 3.34413 70.0881 3.0431 70.0881 2.71471C70.0881 2.41368 70.0608 2.14001 70.0334 1.92108C70.006 1.70215 69.9513 1.53795 69.8692 1.40112C69.7871 1.26428 69.705 1.18219 69.5955 1.12745C69.4861 1.07272 69.3492 1.04535 69.185 1.04535H68.063V4.35669Z" fill="#8F9198"></path><path d="M74.4375 4.90402V0.525391H76.0521C76.4353 0.525391 76.7363 0.60749 76.9278 0.799055C77.1194 0.99062 77.2015 1.26429 77.2015 1.64742C77.2015 1.83898 77.1742 1.97581 77.1194 2.11265C77.0647 2.24948 76.9826 2.35894 76.9005 2.44104C76.8184 2.52314 76.7089 2.57787 76.5995 2.60524C76.6816 2.63261 76.7637 2.65997 76.8458 2.71471C76.9279 2.76944 77.0099 2.82417 77.092 2.90627C77.1741 2.98837 77.2289 3.09784 77.2836 3.2073C77.3383 3.34414 77.3657 3.48097 77.3657 3.64517C77.3657 3.9462 77.311 4.19249 77.2015 4.35669C77.092 4.52089 76.9552 4.65772 76.7636 4.73982C76.5721 4.82192 76.3531 4.84929 76.1068 4.84929H74.4375V4.90402ZM75.0122 2.41368H76.0521C76.2163 2.41368 76.3532 2.35894 76.4626 2.22211C76.5721 2.08528 76.6268 1.94845 76.6268 1.72951C76.6268 1.48322 76.5721 1.29165 76.4626 1.18219C76.3532 1.07272 76.189 1.01799 76.0248 1.01799H75.0122V2.41368ZM75.0122 4.35669H76.0795C76.2163 4.35669 76.3532 4.32933 76.4353 4.27459C76.5447 4.21986 76.6268 4.13776 76.6815 4.0283C76.7363 3.91883 76.7636 3.75463 76.7636 3.56307C76.7636 3.42623 76.7363 3.2894 76.6815 3.17994C76.6268 3.07047 76.5447 2.98837 76.4353 2.93364C76.3258 2.87891 76.2163 2.85154 76.0795 2.85154H75.0122V4.35669Z" fill="#8F9198"></path><path d="M79.8605 4.904V3.50831L78.4922 0.552734H79.1216L80.1615 2.90625L81.2014 0.552734H81.8035L80.4352 3.50831V4.904H79.8605Z" fill="#8F9198"></path><path d="M38.9727 16.9424V8.65039H40.2862L43.707 14.1237V8.65039H45.349V16.9424H44.0628L40.642 11.4691V16.9424H38.9727Z" fill="#8F9198"></path><path d="M50.1657 16.9991C50.0015 16.9991 49.7826 16.9717 49.5636 16.9444C49.3447 16.917 49.1258 16.8349 48.9068 16.7254C48.6879 16.616 48.5237 16.4244 48.3869 16.1781C48.25 15.9318 48.1953 15.6034 48.1953 15.1655V10.568C48.1953 10.2122 48.2501 9.88381 48.3595 9.63751C48.469 9.39121 48.6058 9.19965 48.7974 9.06282C48.9889 8.92599 49.1805 8.81652 49.3994 8.76179C49.6184 8.70705 49.8373 8.67969 50.0562 8.67969C50.6036 8.67969 51.0962 8.67969 51.5067 8.70705C51.9445 8.73442 52.3277 8.73442 52.6561 8.76179C52.9845 8.78915 53.3128 8.78915 53.5865 8.81652V10.2122H50.5215C50.3025 10.2122 50.111 10.2669 50.0015 10.3764C49.8647 10.4859 49.8099 10.6501 49.8099 10.8964V12.1005L53.0666 12.1826V13.4962L49.8099 13.5783V14.7277C49.8099 14.9192 49.8373 15.0834 49.892 15.1929C49.9468 15.3024 50.0562 15.3845 50.1383 15.4118C50.2478 15.4392 50.3573 15.4666 50.4941 15.4666H53.5865V16.8623C53.2581 16.8896 52.9023 16.917 52.4918 16.9444C52.1087 16.9717 51.6982 16.9717 51.2877 16.9991C50.9046 16.9991 50.5488 16.9991 50.1657 16.9991Z" fill="#8F9198"></path><path d="M58.1034 16.9444V10.1575H55.8594V8.67969H62.0168V10.1575H59.7454V16.9444H58.1034Z" fill="#8F9198"></path><path d="M64.3125 16.9424V8.65039H65.9545V12.0986H69.0469V8.65039H70.6889V16.9424H69.0469V13.6037H65.9545V16.9424H64.3125Z" fill="#8F9198"></path><path d="M75.5095 16.9991C75.3453 16.9991 75.1263 16.9717 74.9074 16.9444C74.6885 16.917 74.4695 16.8349 74.2506 16.7254C74.0317 16.616 73.8675 16.4244 73.7306 16.1781C73.5938 15.9318 73.5391 15.6034 73.5391 15.1655V10.568C73.5391 10.2122 73.5938 9.88381 73.7033 9.63751C73.8128 9.39121 73.9496 9.19965 74.1411 9.06282C74.3327 8.92599 74.5243 8.81652 74.7432 8.76179C74.9621 8.70705 75.1811 8.67969 75.4 8.67969C75.9473 8.67969 76.4399 8.67969 76.8504 8.70705C77.2883 8.73442 77.6714 8.73442 77.9998 8.76179C78.3282 8.78915 78.6566 8.78915 78.9303 8.81652V10.2122H75.8652C75.6463 10.2122 75.4547 10.2669 75.3453 10.3764C75.2084 10.4859 75.1537 10.6501 75.1537 10.8964V12.1005L78.4103 12.1826V13.4962L75.1537 13.5783V14.7277C75.1537 14.9192 75.1811 15.0834 75.2358 15.1929C75.2905 15.3024 75.4 15.3845 75.4821 15.4118C75.5916 15.4392 75.701 15.4666 75.8379 15.4666H78.9303V16.8623C78.6019 16.8896 78.2461 16.917 77.8356 16.9444C77.4525 16.9717 77.042 16.9717 76.6315 16.9991C76.2484 16.9991 75.8652 16.9991 75.5095 16.9991Z" fill="#8F9198"></path><path d="M81.9688 16.9424V8.65039H85.3622C85.6906 8.65039 85.9916 8.67776 86.2653 8.75985C86.5389 8.84195 86.7853 8.97879 87.0042 9.17035C87.2231 9.36192 87.3873 9.63558 87.4968 9.96398C87.6336 10.3197 87.6883 10.7576 87.6883 11.2776C87.6883 11.6607 87.661 11.9891 87.5789 12.2628C87.4968 12.5364 87.4147 12.7554 87.2778 12.9196C87.1684 13.0838 87.0315 13.2206 86.8673 13.3301C86.7032 13.4395 86.5663 13.5216 86.4021 13.5763L87.9346 16.8877H86.2653L84.9517 13.8226C84.8696 13.8226 84.7601 13.8226 84.6507 13.8226C84.5412 13.8226 84.4317 13.8226 84.2949 13.8226C84.1581 13.8226 84.0486 13.8226 83.9391 13.8226C83.8297 13.8226 83.7202 13.8226 83.6107 13.8226V16.9151H81.9688V16.9424ZM83.6107 12.5364H85.0612C85.198 12.5364 85.3348 12.5091 85.4717 12.4817C85.6085 12.4543 85.6906 12.3722 85.7727 12.2901C85.8548 12.1807 85.9369 12.0712 85.9642 11.907C86.019 11.7428 86.0464 11.5512 86.0464 11.3049C86.0464 11.086 86.019 10.8944 85.9642 10.7302C85.9095 10.566 85.8548 10.4566 85.7727 10.3745C85.6906 10.2924 85.5811 10.2376 85.4717 10.1829C85.3622 10.1555 85.2254 10.1282 85.0612 10.1282H83.6107V12.5364Z" fill="#8F9198"></path><path d="M90.3164 16.9424L91.2742 8.65039H92.8341L94.7224 14.9994L96.5833 8.65039H98.1432L99.101 16.9424H97.5138L96.8022 10.8397L97.0485 10.8671L95.4339 16.9424H93.9014L92.2868 10.8671H92.5604L91.8763 16.9424H90.3164Z" fill="#8F9198"></path><path d="M101.973 16.9424V8.65039H103.615V16.9424H101.973Z" fill="#8F9198"></path><path d="M106.43 16.9424V8.65039H107.743L111.164 14.1237V8.65039H112.806V16.9424H111.492L108.072 11.4691V16.9424H106.43Z" fill="#8F9198"></path><path d="M115.652 16.9424V8.65039H119.128C119.675 8.65039 120.14 8.75986 120.524 8.95142C120.879 9.14299 121.18 9.41665 121.399 9.79978C121.618 10.1555 121.782 10.5934 121.865 11.1134C121.947 11.6333 122.001 12.1807 122.001 12.7827C122.001 13.7132 121.892 14.4794 121.673 15.1089C121.454 15.7109 121.153 16.1762 120.742 16.4772C120.332 16.7782 119.785 16.9151 119.155 16.9151H115.652V16.9424ZM117.294 15.4646H118.964C119.292 15.4646 119.566 15.3552 119.785 15.1636C119.976 14.972 120.14 14.671 120.223 14.2605C120.332 13.8774 120.359 13.3848 120.359 12.7827C120.359 12.2354 120.332 11.7975 120.277 11.4691C120.223 11.1134 120.14 10.8397 120.004 10.6481C119.894 10.4566 119.757 10.3197 119.566 10.2376C119.402 10.1555 119.21 10.1282 118.964 10.1282H117.294V15.4646Z" fill="#8F9198"></path><path d="M9.98659 0.906431L8.80984 5.28506C8.59091 5.2577 8.37197 5.23033 8.15304 5.23033C7.82464 5.23033 7.52362 5.28506 7.22259 5.3398C6.70263 5.47663 6.21003 5.75029 5.79953 6.07869L2.59766 2.87682C3.00815 2.49369 3.47338 2.13792 3.96598 1.83689L4.21228 1.70006C4.78698 1.37166 5.38903 1.12536 6.04582 0.961164C6.72998 0.769599 7.41415 0.6875 8.15304 0.6875C8.78247 0.6875 9.4119 0.769599 9.98659 0.906431Z" fill="#8F9198"></path><path d="M32.4027 7.03711C32.5395 7.6118 32.6216 8.24123 32.6216 8.87066C32.6216 9.60955 32.5122 10.2937 32.348 10.9779C32.1838 11.6347 31.9101 12.2367 31.6091 12.8114L31.4723 13.0577C31.1712 13.5503 30.8428 14.0156 30.4597 14.426L27.2578 11.2242C27.6136 10.8137 27.8599 10.3484 27.9967 9.80112C28.0788 9.50009 28.1062 9.19906 28.1062 8.87066C28.1062 8.65173 28.0788 8.4328 28.0514 8.24123L32.4027 7.03711Z" fill="#8F9198"></path><path d="M23.2622 12.2592L22.0855 16.6378C21.5382 16.4736 21.0182 16.2547 20.5256 15.981L20.2793 15.8442C19.7046 15.4884 19.1846 15.0779 18.692 14.6127L18.4458 14.3664C18.2542 14.1748 18.09 13.9559 17.9258 13.737L21.0729 10.5898L21.7844 11.3287C21.8118 11.3561 21.8392 11.4108 21.8939 11.4382C22.277 11.794 22.7423 12.095 23.2622 12.2592Z" fill="#8F9198"></path><path d="M14.6958 3.97508L11.5486 7.12222L10.8645 6.38333C10.8371 6.35597 10.8097 6.30123 10.755 6.27387C10.3719 5.89074 9.90666 5.5897 9.41406 5.42551L10.5908 1.04688C11.1381 1.21107 11.6581 1.43001 12.1507 1.70367L12.397 1.8405C12.9717 2.19627 13.519 2.60676 13.9842 3.07199L14.2305 3.31829C14.34 3.53722 14.5316 3.75615 14.6958 3.97508Z" fill="#8F9198"></path><path d="M26.8199 11.6074L30.0218 14.8093C29.6113 15.1924 29.146 15.5482 28.6534 15.8492L28.4071 15.9861C27.8324 16.3144 27.2304 16.5607 26.5736 16.7249C25.8894 16.9165 25.2053 16.9986 24.4664 16.9986C23.8369 16.9986 23.2349 16.9165 22.6328 16.807L23.8096 12.4284C24.0285 12.4558 24.2474 12.4831 24.4664 12.4831C24.7948 12.4831 25.0958 12.4284 25.3968 12.3737C25.9441 12.2095 26.4094 11.9632 26.8199 11.6074Z" fill="#8F9198"></path><path d="M10.1526 11.8805L13.3545 15.1371C13.0535 15.3834 12.7251 15.6297 12.3693 15.8212L12.123 15.9581C11.5483 16.2865 10.9462 16.5328 10.2895 16.697C9.60529 16.8885 8.92114 16.9706 8.18225 16.9706C7.44335 16.9706 6.75919 16.8612 6.07503 16.697C5.41823 16.5328 4.81617 16.2865 4.24147 15.9581L3.96781 15.7939C3.39311 15.4381 2.87315 15.0276 2.40792 14.5624C1.94269 14.0972 1.53219 13.5772 1.17643 13.0025L1.0396 12.7562C0.765933 12.2636 0.547011 11.7436 0.382812 11.1963L4.76144 9.99219C4.95301 10.5121 5.22667 10.9774 5.6098 11.3605C6.04766 11.7984 6.62236 12.1268 7.22442 12.291C7.52545 12.3731 7.82647 12.4004 8.15487 12.4004C8.48327 12.4004 8.78431 12.3731 9.08534 12.291C9.46847 12.2636 9.82422 12.0994 10.1526 11.8805Z" fill="#8F9198"></path><path d="M2.18932 3.28711L5.39119 6.48898C5.03543 6.89948 4.78913 7.36471 4.65229 7.91204C4.5702 8.21307 4.54282 8.5141 4.54282 8.8425C4.54282 9.06143 4.57019 9.28036 4.59756 9.47193L0.218928 10.676C0.082096 10.1014 0 9.47193 0 8.8425C0 8.1036 0.109466 7.41944 0.273664 6.73528C0.437863 6.07849 0.684164 5.47642 1.01256 4.90173L1.14939 4.65543C1.45042 4.16284 1.80618 3.69761 2.18932 3.28711Z" fill="#8F9198"></path><path d="M32.2686 6.46373L27.8899 7.66785C27.6984 7.14789 27.4247 6.68266 27.0416 6.29953C26.6037 5.86167 26.029 5.53327 25.4269 5.36907C25.1259 5.28697 24.8249 5.2596 24.4965 5.2596C24.1681 5.2596 23.867 5.31434 23.566 5.36907C23.1829 5.47853 22.8271 5.64273 22.5261 5.8343L19.3242 2.57769C19.6252 2.33139 19.9537 2.0851 20.3094 1.89353L20.5557 1.7567C21.1304 1.4283 21.7325 1.182 22.3893 1.01781C23.0734 0.82624 23.7576 0.744141 24.4965 0.744141C25.2354 0.744141 25.9195 0.853606 26.6037 1.01781C27.2605 1.182 27.8626 1.4283 28.4373 1.7567L28.7109 1.9209C29.2856 2.27666 29.8056 2.68716 30.2708 3.15239C30.736 3.61762 31.1465 4.13758 31.5023 4.71228L31.6391 4.95857C31.8854 5.39644 32.1044 5.9164 32.2686 6.46373Z" fill="#8F9198"></path></svg>