<?xml version="1.0" encoding="UTF-8"?>
<!-- Generator: Adobe Illustrator 28.3.0, SVG Export Plug-In . SVG Version: 6.00 Build 0)  -->
<svg version="1.1" id="Layer_1" xmlns="http://www.w3.org/2000/svg" xmlns:xlink="http://www.w3.org/1999/xlink" x="0px" y="0px" viewBox="0 0 1340.2 319.86" style="enable-background:new 0 0 1340.2 319.86;" xml:space="preserve"><script xmlns="" id="argent-x-extension" data-extension-id="{51e0c76c-7dbc-41ba-a45d-c579be84301b}"/><script xmlns=""/>
<style type="text/css">
	.st0{fill:#1b1b50;}
	.st1{fill:#1B1B50;}
	.st2{fill-rule:evenodd;clip-rule:evenodd;fill:#1b1b50;}
	.st3{fill:#FE4A04;}
</style>
<g>
	<g>
		<path class="st0" d="M421.61,124.26c-4.14-1.81-7.4-4.38-9.77-7.71c-2.37-3.33-3.55-7.21-3.55-11.65h13.54    c0.29,3.33,1.61,6.07,3.94,8.21c2.33,2.15,5.6,3.22,9.82,3.22c4.36,0,7.77-1.05,10.21-3.16c2.44-2.11,3.66-4.83,3.66-8.16    c0-2.59-0.76-4.7-2.28-6.33c-1.52-1.63-3.4-2.89-5.66-3.77c-2.26-0.89-5.38-1.85-9.38-2.89c-5.03-1.33-9.12-2.68-12.26-4.05    c-3.15-1.37-5.83-3.5-8.05-6.38c-2.22-2.89-3.33-6.73-3.33-11.54c0-4.44,1.11-8.32,3.33-11.65c2.22-3.33,5.33-5.88,9.32-7.66    c4-1.78,8.62-2.66,13.87-2.66c7.47,0,13.59,1.87,18.37,5.6c4.77,3.74,7.42,8.86,7.93,15.37h-13.98c-0.22-2.81-1.55-5.22-4-7.21    c-2.44-2-5.66-3-9.65-3c-3.63,0-6.59,0.93-8.88,2.77c-2.29,1.85-3.44,4.51-3.44,7.99c0,2.37,0.72,4.31,2.16,5.83    c1.44,1.52,3.27,2.72,5.49,3.61c2.22,0.89,5.25,1.85,9.1,2.89c5.1,1.41,9.27,2.81,12.48,4.22c3.22,1.41,5.96,3.57,8.21,6.49    c2.26,2.92,3.38,6.83,3.38,11.71c0,3.92-1.05,7.62-3.16,11.1c-2.11,3.48-5.18,6.27-9.21,8.38c-4.03,2.11-8.79,3.16-14.26,3.16    C430.41,126.98,425.75,126.07,421.61,124.26z"/>
		<path class="st0" d="M491.75,75.38v33.85c0,2.29,0.54,3.94,1.61,4.94c1.07,1,2.9,1.5,5.49,1.5h7.77v10.54h-9.99    c-5.7,0-10.06-1.33-13.09-3.99c-3.03-2.66-4.55-6.99-4.55-12.98V75.38h-7.21V65.06h7.21v-15.2h12.76v15.2h14.87v10.32H491.75z"/>
		<path class="st0" d="M517.66,79.04c2.55-4.73,6.03-8.42,10.43-11.04c4.4-2.63,9.27-3.94,14.59-3.94c4.81,0,9.01,0.94,12.6,2.83    c3.59,1.89,6.45,4.24,8.6,7.05v-8.88h12.76v61.15h-12.76v-9.1c-2.15,2.89-5.07,5.29-8.77,7.21c-3.7,1.92-7.92,2.89-12.65,2.89    c-5.25,0-10.06-1.35-14.43-4.05c-4.37-2.7-7.82-6.47-10.38-11.32c-2.55-4.84-3.83-10.34-3.83-16.48    C513.83,89.21,515.11,83.77,517.66,79.04z M561.27,84.59c-1.74-3.11-4.01-5.47-6.82-7.1c-2.81-1.63-5.85-2.44-9.1-2.44    c-3.26,0-6.29,0.8-9.1,2.39c-2.81,1.59-5.09,3.92-6.83,6.99c-1.74,3.07-2.61,6.71-2.61,10.93c0,4.22,0.87,7.92,2.61,11.1    c1.74,3.18,4.03,5.6,6.88,7.27c2.85,1.66,5.86,2.5,9.04,2.5c3.26,0,6.29-0.81,9.1-2.44c2.81-1.63,5.09-4.01,6.82-7.16    c1.74-3.14,2.61-6.82,2.61-11.04C563.88,91.36,563.01,87.69,561.27,84.59z"/>
		<path class="st0" d="M613.1,66.66c3.07-1.74,6.71-2.61,10.93-2.61v13.1h-3.22c-4.96,0-8.71,1.26-11.26,3.77    c-2.55,2.52-3.83,6.88-3.83,13.09v32.18h-12.65V65.06h12.65v8.88C607.56,70.83,610.02,68.4,613.1,66.66z"/>
		<path class="st0" d="M659.65,95.68l28.19,30.52h-17.09l-22.64-26.3v26.3h-12.65V44.08h12.65V91.8l22.2-26.74h17.53L659.65,95.68z"/>
		<path class="st0" d="M740.49,67.05c3.81,2,6.79,4.96,8.93,8.88c2.15,3.92,3.22,8.66,3.22,14.2v36.07H740.1V92.02    c0-5.47-1.37-9.67-4.11-12.6c-2.74-2.92-6.48-4.38-11.21-4.38c-4.74,0-8.49,1.46-11.26,4.38c-2.77,2.92-4.16,7.12-4.16,12.6v34.18    h-12.65V65.06h12.65v6.99c2.07-2.51,4.72-4.48,7.93-5.88c3.22-1.4,6.64-2.11,10.26-2.11C732.37,64.06,736.68,65.06,740.49,67.05z"/>
		<path class="st0" d="M824.11,100.35h-46.72c0.37,4.88,2.18,8.81,5.44,11.76c3.25,2.96,7.25,4.44,11.98,4.44    c6.81,0,11.61-2.85,14.43-8.54h13.65c-1.85,5.62-5.2,10.23-10.04,13.82c-4.85,3.59-10.86,5.38-18.03,5.38    c-5.85,0-11.08-1.31-15.7-3.94c-4.62-2.63-8.25-6.33-10.88-11.1c-2.63-4.77-3.94-10.3-3.94-16.59c0-6.29,1.28-11.82,3.83-16.59    c2.55-4.77,6.14-8.45,10.76-11.04c4.62-2.59,9.93-3.88,15.92-3.88c5.77,0,10.91,1.26,15.43,3.77c4.51,2.52,8.03,6.05,10.54,10.6    c2.51,4.55,3.77,9.79,3.77,15.7C824.55,96.43,824.4,98.5,824.11,100.35z M811.35,90.14c-0.07-4.66-1.74-8.4-4.99-11.21    c-3.26-2.81-7.29-4.22-12.1-4.22c-4.37,0-8.1,1.39-11.21,4.16c-3.11,2.77-4.96,6.53-5.55,11.26H811.35z"/>
		<path class="st0" d="M851.52,75.38v33.85c0,2.29,0.54,3.94,1.61,4.94c1.07,1,2.9,1.5,5.49,1.5h7.77v10.54h-9.99    c-5.7,0-10.06-1.33-13.09-3.99c-3.03-2.66-4.55-6.99-4.55-12.98V75.38h-7.21V65.06h7.21v-15.2h12.76v15.2h14.87v10.32H851.52z"/>
		<path class="st0" d="M459.99,274.64l-20.85-37.84h-5.85v37.84h-24.42V174.4h40.98c7.9,0,14.64,1.38,20.21,4.14    c5.57,2.76,9.73,6.55,12.5,11.35c2.76,4.81,4.14,10.16,4.14,16.07c0,6.66-1.88,12.62-5.64,17.85c-3.76,5.24-9.31,8.95-16.64,11.14    l23.14,39.7H459.99z M433.28,219.52h15.14c4.47,0,7.83-1.09,10.07-3.28c2.24-2.19,3.36-5.28,3.36-9.28c0-3.81-1.12-6.81-3.36-9    c-2.24-2.19-5.59-3.29-10.07-3.29h-15.14V219.52z"/>
		<path class="st0" d="M576.37,240.66h-55.26c0.38,4.95,1.97,8.73,4.78,11.35c2.81,2.62,6.26,3.93,10.35,3.93    c6.09,0,10.33-2.57,12.71-7.71h25.99c-1.33,5.24-3.74,9.95-7.21,14.14c-3.48,4.19-7.83,7.47-13.07,9.85    c-5.24,2.38-11.09,3.57-17.57,3.57c-7.81,0-14.76-1.66-20.85-5c-6.09-3.33-10.85-8.09-14.28-14.28    c-3.43-6.19-5.14-13.42-5.14-21.71s1.69-15.52,5.07-21.71c3.38-6.19,8.11-10.95,14.21-14.28c6.09-3.33,13.09-5,20.99-5    c7.71,0,14.57,1.62,20.56,4.85c6,3.24,10.69,7.85,14.07,13.85c3.38,6,5.07,12.99,5.07,20.99    C576.8,235.8,576.66,238.18,576.37,240.66z M551.81,227.09c0-4.19-1.43-7.52-4.28-10c-2.86-2.47-6.43-3.71-10.71-3.71    c-4.09,0-7.55,1.19-10.35,3.57c-2.81,2.38-4.55,5.76-5.21,10.14H551.81z"/>
		<path class="st0" d="M714.67,203.1c5.85,6,8.78,14.33,8.78,24.99v46.55h-24.28v-43.27c0-5.14-1.36-9.11-4.07-11.92    c-2.71-2.81-6.45-4.21-11.21-4.21c-4.76,0-8.5,1.41-11.21,4.21c-2.71,2.81-4.07,6.78-4.07,11.92v43.27h-24.28v-43.27    c0-5.14-1.36-9.11-4.07-11.92c-2.71-2.81-6.45-4.21-11.21-4.21c-4.76,0-8.5,1.41-11.21,4.21c-2.71,2.81-4.07,6.78-4.07,11.92    v43.27h-24.42v-79.68h24.42v10c2.47-3.33,5.71-5.97,9.71-7.93c4-1.95,8.52-2.93,13.57-2.93c6,0,11.35,1.28,16.07,3.86    c4.71,2.57,8.4,6.24,11.07,11c2.76-4.38,6.52-7.95,11.28-10.71c4.76-2.76,9.95-4.14,15.56-4.14    C700.94,194.1,708.82,197.1,714.67,203.1z"/>
		<path class="st0" d="M742.09,182.89c-2.71-2.52-4.07-5.64-4.07-9.35c0-3.81,1.36-6.97,4.07-9.5c2.71-2.52,6.21-3.79,10.5-3.79    c4.19,0,7.64,1.26,10.35,3.79c2.71,2.52,4.07,5.69,4.07,9.5c0,3.71-1.36,6.83-4.07,9.35c-2.71,2.52-6.16,3.78-10.35,3.78    C748.3,186.68,744.8,185.42,742.09,182.89z M764.72,194.96v79.68H740.3v-79.68H764.72z"/>
		<path class="st0" d="M829.27,274.64l-15.28-22.13l-12.85,22.13h-26.42l26.28-40.7L774,194.96h27.42l15.28,21.99l12.85-21.99h26.42    l-26.7,40.13l27.42,39.56H829.27z"/>
		<path class="st0" d="M968.21,222.59c-2.67,4.81-6.76,8.69-12.28,11.64c-5.52,2.95-12.38,4.43-20.56,4.43h-15.14v35.99h-24.42    V174.4h39.56c8,0,14.76,1.38,20.28,4.14c5.52,2.76,9.66,6.57,12.42,11.42c2.76,4.85,4.14,10.42,4.14,16.71    C972.21,212.48,970.87,217.79,968.21,222.59z M943.93,215.95c2.28-2.19,3.43-5.28,3.43-9.28c0-4-1.14-7.09-3.43-9.28    c-2.28-2.19-5.76-3.28-10.42-3.28h-13.28v25.13h13.28C938.17,219.24,941.65,218.14,943.93,215.95z"/>
		<path class="st0" d="M1009.05,168.97v105.67h-24.42V168.97H1009.05z"/>
		<path class="st0" d="M1105.16,194.96v79.68h-24.42v-10.85c-2.48,3.52-5.83,6.35-10.07,8.5c-4.24,2.14-8.93,3.21-14.07,3.21    c-6.09,0-11.47-1.36-16.14-4.07c-4.67-2.71-8.28-6.64-10.85-11.78c-2.57-5.14-3.86-11.18-3.86-18.14v-46.55h24.28v43.27    c0,5.33,1.38,9.47,4.14,12.42c2.76,2.95,6.47,4.43,11.14,4.43c4.76,0,8.52-1.48,11.28-4.43c2.76-2.95,4.14-7.09,4.14-12.42v-43.27    H1105.16z"/>
		<path class="st0" d="M1167.49,197.25c4.24,2.28,7.5,5.28,9.78,9v-11.28h24.42v79.54c0,7.33-1.45,13.97-4.36,19.92    c-2.91,5.95-7.33,10.69-13.28,14.21c-5.95,3.52-13.35,5.28-22.21,5.28c-11.81,0-21.37-2.78-28.7-8.35    c-7.33-5.57-11.52-13.12-12.57-22.63h24.13c0.76,3.05,2.57,5.45,5.43,7.21c2.86,1.76,6.38,2.64,10.57,2.64    c5.04,0,9.07-1.45,12.07-4.36c3-2.9,4.5-7.55,4.5-13.92v-11.28c-2.38,3.71-5.67,6.74-9.85,9.07c-4.19,2.33-9.09,3.5-14.71,3.5    c-6.57,0-12.52-1.69-17.85-5.07c-5.33-3.38-9.55-8.19-12.64-14.42c-3.1-6.23-4.64-13.45-4.64-21.63c0-8.19,1.55-15.37,4.64-21.56    c3.09-6.19,7.31-10.95,12.64-14.28c5.33-3.33,11.28-5,17.85-5C1158.32,193.82,1163.25,194.96,1167.49,197.25z M1172.2,220.38    c-3.38-3.52-7.5-5.28-12.35-5.28c-4.85,0-8.97,1.74-12.35,5.21c-3.38,3.48-5.07,8.26-5.07,14.35c0,6.09,1.69,10.92,5.07,14.49    c3.38,3.57,7.5,5.35,12.35,5.35c4.86,0,8.97-1.76,12.35-5.28c3.38-3.52,5.07-8.33,5.07-14.42    C1177.27,228.71,1175.58,223.9,1172.2,220.38z"/>
		<path class="st0" d="M1220.89,182.89c-2.71-2.52-4.07-5.64-4.07-9.35c0-3.81,1.36-6.97,4.07-9.5c2.71-2.52,6.21-3.79,10.5-3.79    c4.19,0,7.64,1.26,10.35,3.79c2.71,2.52,4.07,5.69,4.07,9.5c0,3.71-1.36,6.83-4.07,9.35c-2.71,2.52-6.16,3.78-10.35,3.78    C1227.11,186.68,1223.61,185.42,1220.89,182.89z M1243.53,194.96v79.68h-24.42v-79.68H1243.53z"/>
		<path class="st0" d="M1331.85,203.17c5.57,6.05,8.35,14.35,8.35,24.92v46.55h-24.28v-43.27c0-5.33-1.38-9.47-4.14-12.42    c-2.76-2.95-6.48-4.43-11.14-4.43c-4.67,0-8.38,1.48-11.14,4.43c-2.76,2.95-4.14,7.09-4.14,12.42v43.27h-24.42v-79.68h24.42v10.57    c2.47-3.52,5.81-6.31,10-8.35c4.19-2.05,8.9-3.07,14.14-3.07C1318.83,194.1,1326.28,197.13,1331.85,203.17z"/>
	</g>
	<g>
		<g>
			<g>
				<circle class="st1" cx="159.81" cy="160.07" r="152.66"/>
				<g>
					<g>
						<path class="st0" d="M159.93,0C71.6,0,0,71.6,0,159.93s71.6,159.93,159.93,159.93s159.93-71.6,159.93-159.93        S248.26,0,159.93,0z M159.93,312.59c-84.32,0-152.66-68.35-152.66-152.66S75.61,7.27,159.93,7.27s152.66,68.35,152.66,152.66        S244.25,312.59,159.93,312.59z"/>
						<g id="_3AKAlw.tif">
							<path class="st0" d="M160.81,261.29c-20.63-20.63-41.25-41.24-61.99-61.98c0.61,0.1,1.13,0.12,1.6,0.27         c8.63,2.87,17.25,5.75,25.88,8.63c10.81,3.6,21.63,7.22,32.43,10.82c0.39,0.12,0.75,0.29,1.12,0.44         c0.79,0.31,1.53,0.06,2.28-0.17c19.48-6.49,38.97-12.99,58.45-19.48c0.62-0.21,1.26-0.36,1.96-0.56         C222.41,199.93,162.51,260,160.81,261.29z"/>
						</g>
					</g>
					<path class="st2" d="M181.71,151.67l-11.37,3.83c-2.41,0.67-4.13,2.41-4.84,4.81l-3.45,11.37c-0.34,1.38-2.74,1.73-3.08,0       l-3.79-11.37c-0.71-2.07-2.78-3.79-4.84-4.81l-11.37-3.45c-1.38-0.37-1.73-2.78,0-3.12l11.37-3.79       c2.41-0.67,4.13-2.41,4.84-4.84l3.45-11.37c0.34-1.36,2.74-1.73,3.08,0l3.79,11.37c0.71,2.44,2.44,4.16,4.84,4.84l11.37,3.45       C183.09,148.92,183.43,151.33,181.71,151.67L181.71,151.67z"/>
				</g>
			</g>
			<g>
				<g>
					<path class="st0" d="M159.93,0C71.6,0,0,71.6,0,159.93s71.6,159.93,159.93,159.93s159.93-71.6,159.93-159.93S248.26,0,159.93,0       z M159.93,312.59c-84.32,0-152.66-68.35-152.66-152.66S75.61,7.27,159.93,7.27s152.66,68.35,152.66,152.66       S244.25,312.59,159.93,312.59z"/>
					<g id="_3AKAlw.tif-2">
						<path class="st0" d="M160.81,261.29c-20.63-20.63-41.25-41.24-61.99-61.98c0.61,0.1,1.13,0.12,1.6,0.27        c8.63,2.87,17.25,5.75,25.88,8.63c10.81,3.6,21.63,7.22,32.43,10.82c0.39,0.12,0.75,0.29,1.12,0.44        c0.79,0.31,1.53,0.06,2.28-0.17c19.48-6.49,38.97-12.99,58.45-19.48c0.62-0.21,1.26-0.36,1.96-0.56        C222.41,199.93,162.51,260,160.81,261.29z"/>
					</g>
				</g>
				<path class="st2" d="M181.71,151.67l-11.37,3.83c-2.41,0.67-4.13,2.41-4.84,4.81l-3.45,11.37c-0.34,1.38-2.74,1.73-3.08,0      l-3.79-11.37c-0.71-2.07-2.78-3.79-4.84-4.81l-11.37-3.45c-1.38-0.37-1.73-2.78,0-3.12l11.37-3.79      c2.41-0.67,4.13-2.41,4.84-4.84l3.45-11.37c0.34-1.36,2.74-1.73,3.08,0l3.79,11.37c0.71,2.44,2.44,4.16,4.84,4.84l11.37,3.45      C183.09,148.92,183.43,151.33,181.71,151.67L181.71,151.67z"/>
			</g>
			<g>
				<g>
					<path class="st3" d="M159.93,0C71.6,0,0,71.6,0,159.93s71.6,159.93,159.93,159.93s159.93-71.6,159.93-159.93S248.26,0,159.93,0       z M159.93,312.59c-84.32,0-152.66-68.35-152.66-152.66S75.61,7.27,159.93,7.27s152.66,68.35,152.66,152.66       S244.25,312.59,159.93,312.59z"/>
					<g id="_3AKAlw.tif-3">
						<path class="st3" d="M160.81,261.29c-20.63-20.63-41.25-41.24-61.99-61.98c0.61,0.1,1.13,0.12,1.6,0.27        c8.63,2.87,17.25,5.75,25.88,8.63c10.81,3.6,21.63,7.22,32.43,10.82c0.39,0.12,0.75,0.29,1.12,0.44        c0.79,0.31,1.53,0.06,2.28-0.17c19.48-6.49,38.97-12.99,58.45-19.48c0.62-0.21,1.26-0.36,1.96-0.56        C222.41,199.93,162.51,260,160.81,261.29z"/>
					</g>
				</g>
				<path class="st2" d="M181.71,151.67l-11.37,3.83c-2.41,0.67-4.13,2.41-4.84,4.81l-3.45,11.37c-0.34,1.38-2.74,1.73-3.08,0      l-3.79-11.37c-0.71-2.07-2.78-3.79-4.84-4.81l-11.37-3.45c-1.38-0.37-1.73-2.78,0-3.12l11.37-3.79      c2.41-0.67,4.13-2.41,4.84-4.84l3.45-11.37c0.34-1.36,2.74-1.73,3.08,0l3.79,11.37c0.71,2.44,2.44,4.16,4.84,4.84l11.37,3.45      C183.09,148.92,183.43,151.33,181.71,151.67L181.71,151.67z"/>
			</g>
		</g>
		<path class="st3" d="M278.51,143.7c-0.22-2.56-1.38-4.85-3.09-6.81c-2.62-2.99-5.96-4.72-9.76-5.8c-3.86-1.1-7.79-1.48-11.77-1.56    c-1.11-0.02-1.06-0.02-1.38-1.07c-1.02-3.29-1.94-6.63-3.15-9.85c-3.3-8.79-7.95-16.84-13.72-24.25    c-5.62-7.2-12.15-13.47-19.58-18.81c-8.5-6.1-17.73-10.72-27.77-13.69c-0.86-0.26-1.73-0.51-2.61-0.75    c-2.92-0.77-5.77-1.36-8.55-1.83c-0.27-0.05-0.55-0.1-0.82-0.14c-0.15-0.02-0.31-0.05-0.46-0.06c-1.51-0.22-3.03-0.39-4.55-0.55    c-0.41-0.05-0.81-0.1-1.22-0.16c-3.09-0.42-6.21-0.44-9.32-0.37c-3.12-0.05-6.23-0.04-9.32,0.37c-0.41,0.05-0.81,0.11-1.22,0.16    c-1.52,0.17-3.04,0.32-4.55,0.55c-0.15,0.02-0.31,0.04-0.46,0.06c-0.27,0.04-0.55,0.09-0.82,0.14c-2.78,0.46-5.65,1.06-8.55,1.83    c-0.87,0.24-1.73,0.5-2.61,0.75c-10.05,2.97-19.27,7.6-27.77,13.69C98,80.89,91.47,87.17,85.85,94.37    c-5.78,7.4-10.42,15.46-13.72,24.25c-1.21,3.23-2.13,6.56-3.15,9.85c-0.32,1.05-0.27,1.05-1.38,1.07    c-3.98,0.07-7.9,0.46-11.77,1.56c-3.8,1.07-7.14,2.8-9.76,5.8c-1.71,1.96-2.87,4.25-3.09,6.81c-0.29,3.24-0.27,6.51-0.3,9.77    c-0.01,1.65,0.14,3.29,0.27,4.92c0.15,1.84,0.36,3.68,0.57,5.51c0.21,1.86,0.35,3.73,0.74,5.55c0.62,2.95,1.27,5.93,2.19,8.8    c1.98,6.22,5.22,11.69,10.31,15.93c2.51,2.09,5.47,3.2,8.6,3.85c2.12,0.44,4.29,0.74,6.46,0.86c3.04,0.17,6.1,0.2,9.14,0.15    c1.77-0.04,3.54-0.32,5.3-0.54c1.93-0.22,3.85-0.51,5.78-0.75c1.02-0.12,1.17-0.37,0.62-1.25c-3.34-5.27-6.17-10.79-8.24-16.69    c-1.46-4.16-2.61-8.43-3.4-12.76c-0.34-1.86-0.5-3.75-0.75-5.62c-0.56-4.24-0.7-8.5-0.44-12.78c0.24-3.98,0.64-7.93,1.47-11.83    c0.57-2.7,1.28-5.39,2.09-8.03c4.75-15.48,13.47-28.31,25.9-38.64c6.08-5.06,12.8-9.11,20.11-12.15    c3.48-1.46,7.03-2.73,10.72-3.58c2.64-0.61,5.27-1.27,7.95-1.71c2.48-0.4,5-0.55,7.5-0.75c1.72-0.14,3.45-0.24,5.19-0.22    c1.73,0,3.47,0.1,5.19,0.22c2.51,0.19,5.02,0.35,7.5,0.75c2.67,0.42,5.31,1.1,7.95,1.71c3.69,0.85,7.23,2.12,10.72,3.58    c7.3,3.05,14.02,7.09,20.11,12.15c12.43,10.33,21.17,23.16,25.9,38.64c0.81,2.64,1.51,5.32,2.09,8.03    c0.82,3.89,1.23,7.85,1.47,11.83c0.26,4.26,0.12,8.53-0.44,12.78c-0.25,1.87-0.41,3.76-0.75,5.62c-0.8,4.34-1.94,8.59-3.4,12.76    c-2.07,5.9-4.9,11.42-8.24,16.69c-0.55,0.87-0.4,1.12,0.62,1.25c1.93,0.22,3.85,0.51,5.78,0.75c1.77,0.21,3.53,0.5,5.3,0.54    c3.04,0.05,6.1,0.02,9.14-0.15c2.16-0.12,4.34-0.42,6.46-0.86c3.13-0.65,6.1-1.76,8.6-3.85c5.09-4.24,8.33-9.71,10.31-15.93    c0.91-2.88,1.56-5.85,2.19-8.8c0.39-1.82,0.52-3.7,0.74-5.55c0.21-1.83,0.41-3.68,0.57-5.51c0.14-1.63,0.29-3.28,0.27-4.92    c-0.02-3.25,0-6.53-0.3-9.77H278.51z"/>
	</g>
</g>
</svg>