<?xml version="1.0" encoding="UTF-8"?>
<!-- Generator: Adobe Illustrator 28.3.0, SVG Export Plug-In . SVG Version: 6.00 Build 0)  -->
<svg version="1.1" id="Layer_1" xmlns="http://www.w3.org/2000/svg" xmlns:xlink="http://www.w3.org/1999/xlink" x="0px" y="0px" viewBox="0 0 932.84 191.35" style="enable-background:new 0 0 932.84 191.35;" xml:space="preserve"><script xmlns=""/><script xmlns="" id="argent-x-extension" data-extension-id="{51e0c76c-7dbc-41ba-a45d-c579be84301b}"/>
<style type="text/css">
	.st0{fill:#211E52;}
	.st1{fill:#1b1b50;}
	.st2{fill-rule:evenodd;clip-rule:evenodd;fill:#FF3000;}
	.st3{fill-rule:evenodd;clip-rule:evenodd;fill:#EE3A24;}
	.st4{fill:#1B1B50;}
	.st5{fill-rule:evenodd;clip-rule:evenodd;fill:#1b1b50;}
	.st6{fill:#FE4A04;}
	.st7{fill:none;stroke:#211E52;stroke-width:5;stroke-miterlimit:10;}
	.st8{fill:none;stroke:#1b1b50;stroke-width:5;stroke-miterlimit:10;}
</style>
<g>
	<g>
		<path class="st1" d="M16.6,187.69c-5.16-2.26-9.22-5.46-12.17-9.61C1.47,173.93,0,169.09,0,163.56h16.87    c0.37,4.15,2.01,7.56,4.91,10.23c2.9,2.68,6.98,4.01,12.24,4.01c5.44,0,9.68-1.31,12.72-3.94c3.04-2.63,4.56-6.02,4.56-10.16    c0-3.23-0.95-5.85-2.84-7.88c-1.89-2.03-4.24-3.6-7.05-4.7c-2.81-1.11-6.71-2.3-11.69-3.6c-6.27-1.66-11.36-3.34-15.28-5.05    c-3.92-1.7-7.26-4.36-10.03-7.95c-2.77-3.6-4.15-8.39-4.15-14.38c0-5.53,1.38-10.37,4.15-14.52c2.77-4.15,6.64-7.33,11.62-9.54    c4.98-2.21,10.74-3.32,17.29-3.32c9.31,0,16.94,2.33,22.89,6.98c5.95,4.66,9.24,11.04,9.89,19.15H48.68    c-0.28-3.5-1.94-6.5-4.98-8.99c-3.04-2.49-7.05-3.73-12.03-3.73c-4.52,0-8.21,1.15-11.06,3.46c-2.86,2.31-4.29,5.62-4.29,9.96    c0,2.95,0.9,5.37,2.7,7.26c1.8,1.89,4.08,3.39,6.85,4.49c2.77,1.11,6.55,2.31,11.34,3.6c6.36,1.75,11.55,3.51,15.56,5.25    c4.01,1.75,7.42,4.45,10.23,8.09c2.81,3.64,4.22,8.51,4.22,14.59c0,4.89-1.31,9.5-3.94,13.83c-2.63,4.33-6.45,7.81-11.48,10.44    c-5.03,2.63-10.95,3.94-17.77,3.94C27.57,191.08,21.76,189.95,16.6,187.69z"/>
		<path class="st1" d="M104.27,126.77v42.18c0,2.86,0.67,4.91,2.01,6.15c1.34,1.24,3.62,1.87,6.85,1.87h9.68v13.14h-12.45    c-7.1,0-12.54-1.66-16.32-4.98c-3.78-3.32-5.67-8.71-5.67-16.18v-42.18h-8.99v-12.86h8.99V94.96h15.9v18.95h18.53v12.86H104.27z"/>
		<path class="st1" d="M136.84,131.33c3.18-5.9,7.51-10.49,13-13.76c5.48-3.27,11.55-4.91,18.19-4.91c5.99,0,11.22,1.18,15.7,3.53    c4.47,2.35,8.04,5.28,10.72,8.78v-11.06h15.9v76.2h-15.9v-11.34c-2.67,3.6-6.32,6.59-10.93,8.99c-4.61,2.4-9.87,3.6-15.77,3.6    c-6.55,0-12.54-1.68-17.98-5.05c-5.44-3.36-9.75-8.07-12.93-14.11c-3.18-6.04-4.77-12.88-4.77-20.54    C132.07,144.01,133.66,137.24,136.84,131.33z M191.19,138.25c-2.17-3.87-5-6.82-8.51-8.85c-3.5-2.03-7.28-3.04-11.34-3.04    c-4.06,0-7.84,0.99-11.34,2.97c-3.5,1.98-6.34,4.89-8.5,8.71c-2.17,3.83-3.25,8.37-3.25,13.62c0,5.25,1.08,9.87,3.25,13.83    c2.17,3.96,5.02,6.98,8.57,9.06c3.55,2.07,7.31,3.11,11.27,3.11c4.06,0,7.84-1.01,11.34-3.04c3.5-2.03,6.34-5,8.51-8.92    c2.16-3.92,3.25-8.5,3.25-13.76C194.44,146.68,193.36,142.12,191.19,138.25z"/>
		<path class="st1" d="M256.05,115.91c3.82-2.17,8.37-3.25,13.62-3.25v16.32h-4.01c-6.18,0-10.86,1.57-14.04,4.7    c-3.18,3.14-4.77,8.57-4.77,16.32v40.11h-15.77v-76.2h15.77v11.06C249.16,121.1,252.22,118.08,256.05,115.91z"/>
		<path class="st1" d="M314.34,152.08l35.13,38.03h-21.3l-28.21-32.78v32.78h-15.77V87.77h15.77v59.47l27.66-33.33h21.85    L314.34,152.08z"/>
		<path class="st1" d="M415.36,116.4c4.75,2.49,8.46,6.18,11.13,11.06c2.67,4.89,4.01,10.79,4.01,17.7v44.95h-15.63v-42.59    c0-6.82-1.71-12.05-5.12-15.7c-3.41-3.64-8.07-5.46-13.97-5.46c-5.9,0-10.58,1.82-14.04,5.46c-3.46,3.64-5.19,8.87-5.19,15.7    v42.59H360.8v-76.2h15.77v8.71c2.58-3.13,5.88-5.58,9.89-7.33c4.01-1.75,8.27-2.63,12.79-2.63    C405.24,112.66,410.61,113.91,415.36,116.4z"/>
		<path class="st1" d="M519.84,157.89h-58.22c0.46,6.09,2.72,10.97,6.78,14.66c4.06,3.69,9.03,5.53,14.94,5.53    c8.48,0,14.47-3.55,17.98-10.65h17.01c-2.31,7.01-6.48,12.75-12.52,17.22c-6.04,4.47-13.53,6.71-22.47,6.71    c-7.28,0-13.81-1.64-19.57-4.91c-5.76-3.27-10.28-7.88-13.55-13.83c-3.27-5.95-4.91-12.84-4.91-20.68    c0-7.83,1.59-14.73,4.77-20.67c3.18-5.95,7.65-10.53,13.41-13.76c5.76-3.23,12.38-4.84,19.85-4.84c7.19,0,13.6,1.57,19.22,4.7    c5.62,3.14,10,7.54,13.14,13.21c3.13,5.67,4.7,12.19,4.7,19.57C520.4,153,520.21,155.58,519.84,157.89z M503.94,145.16    c-0.09-5.81-2.17-10.46-6.22-13.97c-4.06-3.5-9.08-5.25-15.07-5.25c-5.44,0-10.1,1.73-13.97,5.19c-3.87,3.46-6.18,8.14-6.91,14.04    H503.94z"/>
		<path class="st1" d="M554.28,126.77v42.18c0,2.86,0.67,4.91,2.01,6.15c1.34,1.24,3.62,1.87,6.85,1.87h9.68v13.14h-12.45    c-7.1,0-12.54-1.66-16.32-4.98c-3.78-3.32-5.67-8.71-5.67-16.18v-42.18h-8.99v-12.86h8.99V94.96h15.9v18.95h18.53v12.86H554.28z"/>
		<path class="st1" d="M635.04,190.11l-20.19-36.65h-5.67v36.65h-23.65V93.03h39.69c7.65,0,14.18,1.34,19.57,4.01    c5.39,2.67,9.43,6.34,12.1,11c2.67,4.66,4.01,9.84,4.01,15.56c0,6.45-1.82,12.22-5.46,17.29c-3.64,5.07-9.01,8.67-16.11,10.79    l22.4,38.45H635.04z M609.18,136.73h14.66c4.33,0,7.58-1.06,9.75-3.18c2.16-2.12,3.25-5.12,3.25-8.99c0-3.69-1.09-6.59-3.25-8.71    c-2.17-2.12-5.42-3.18-9.75-3.18h-14.66V136.73z"/>
		<path class="st1" d="M745.81,139.7c-2.58,4.66-6.55,8.41-11.89,11.27c-5.35,2.86-11.99,4.29-19.91,4.29h-14.66v34.85H675.7V93.03    h38.31c7.74,0,14.29,1.34,19.64,4.01c5.35,2.67,9.36,6.36,12.03,11.06c2.67,4.7,4.01,10.1,4.01,16.18    C749.69,129.9,748.39,135.05,745.81,139.7z M722.3,133.27c2.21-2.12,3.32-5.12,3.32-8.99c0-3.87-1.11-6.87-3.32-8.99    c-2.21-2.12-5.58-3.18-10.1-3.18h-12.86v24.34h12.86C716.72,136.45,720.09,135.39,722.3,133.27z"/>
		<path class="st1" d="M764.21,115.78c4.15-7.51,9.93-13.37,17.36-17.56c7.42-4.2,15.83-6.29,25.24-6.29    c11.52,0,21.39,3.04,29.6,9.13c8.2,6.09,13.69,14.38,16.46,24.89h-26c-1.94-4.06-4.68-7.14-8.23-9.27    c-3.55-2.12-7.58-3.18-12.1-3.18c-7.28,0-13.19,2.54-17.7,7.61c-4.52,5.07-6.78,11.85-6.78,20.33c0,8.48,2.26,15.26,6.78,20.33    c4.52,5.07,10.42,7.61,17.7,7.61c4.52,0,8.55-1.06,12.1-3.18c3.55-2.12,6.29-5.21,8.23-9.27h26    c-2.77,10.51-8.25,18.79-16.46,24.82c-8.21,6.04-18.07,9.06-29.6,9.06c-9.4,0-17.82-2.1-25.24-6.29    c-7.42-4.19-13.21-10.03-17.36-17.49c-4.15-7.47-6.22-16-6.22-25.58C757.98,131.84,760.06,123.29,764.21,115.78z"/>
	</g>
	<path class="st2" d="M930.21,53.96l-25.67,8.64c-5.43,1.52-9.32,5.43-10.92,10.86l-7.8,25.67c-0.76,3.12-6.19,3.91-6.95,0   l-8.56-25.67c-1.6-4.67-6.28-8.56-10.92-10.86l-25.67-7.8c-3.12-0.84-3.91-6.28,0-7.04l25.67-8.56c5.43-1.52,9.32-5.43,10.92-10.92   l7.8-25.67c0.76-3.07,6.19-3.91,6.95,0l8.56,25.67c1.6,5.52,5.52,9.4,10.92,10.92l25.67,7.8C933.33,47.77,934.09,53.2,930.21,53.96   L930.21,53.96z"/>
</g>
</svg>