<?xml version="1.0" encoding="utf-8"?>
<!-- Generator: Adobe Illustrator 27.5.0, SVG Export Plug-In . SVG Version: 6.00 Build 0)  -->
<svg version="1.1" id="Layer_1" xmlns="http://www.w3.org/2000/svg" xmlns:xlink="http://www.w3.org/1999/xlink" x="0px" y="0px"
	 width="523.4px" height="100.5px" viewBox="0 0 523.4 100.5" style="enable-background:new 0 0 523.4 100.5;" xml:space="preserve"
	>
<style type="text/css">
	.st0{fill:#1B1B50;}
	.st1{fill-rule:evenodd;clip-rule:evenodd;fill:#1B1B50;}
	.st2{fill:#FC4B05;}
	.st3{opacity:0.65;fill:#1B1B50;enable-background:new    ;}
</style>
<g>
	<g>
		<path class="st0" d="M131.7,64c0,13-4,25.1-10.8,35c-12.4-1.4-25-2.4-37.7-2.9v-0.1L55.6,40.2c-2.6-5.2-7.9-8.6-13.9-8.6H15.8
			c11-18,30.9-30.1,53.5-30.1C103.8,1.5,131.7,29.5,131.7,64z"/>
		<path class="st1" d="M6.9,64c0,12.9,3.9,24.9,10.6,34.8c13.1-1.5,26.5-2.4,39.9-2.7c-0.9-0.1-1.8-0.7-2.2-1.6L30.9,44
			c-2.9-6-9-9.8-15.6-9.8h-0.8C9.6,43,6.9,53.2,6.9,64z M21.3,66.3l1.1,3.4c0.1,0.5,0.8,0.4,0.9,0l1-3.4c0.2-0.7,0.7-1.2,1.4-1.4
			l3.4-1.1c0.5-0.1,0.4-0.8,0-0.9l-3.4-1c-0.7-0.2-1.2-0.7-1.4-1.4l-1.1-3.4c-0.1-0.5-0.8-0.4-0.9,0l-1,3.4
			c-0.2,0.7-0.7,1.2-1.4,1.4L16.6,63c-0.5,0.1-0.4,0.8,0,0.9l3.4,1C20.5,65.2,21.1,65.7,21.3,66.3z"/>
		<path class="st2" d="M18.4,98.6c12.8-1.4,25.9-2.2,39-2.5c-0.9-0.1-1.8-0.7-2.2-1.6L42.5,68.2C33.1,77.1,24.9,87.4,18.4,98.6z"/>
		<path class="st2" d="M61.9,52.9c17.7-11.6,38.4-19.2,60.7-21.6c5.8,9.5,9.2,20.7,9.2,32.7c0,13-4,25.1-10.8,35
			c-12.4-1.4-25-2.4-37.7-2.9v-0.1L61.9,52.9z"/>
		<path class="st3" d="M122.6,31.3c0.7,1.1,1.3,2.2,1.9,3.4c-6.2,1.8-11.4,6.1-14.3,12.1l-23.6,49c-0.1,0.2-0.2,0.4-0.3,0.5
			c-1,0-1.9-0.1-3-0.1v-0.1L72.8,74.9l7.6-18.7c3.5-8.8,9.9-15.7,17.7-20.1C106,33.9,114.2,32.2,122.6,31.3z"/>
		<path class="st0" d="M86.2,96.3c-0.9,0-1.9-0.1-2.9-0.1v-0.1l-9.6-19.4c8.7-4.6,17.8-8.4,27.4-11.1L86.6,95.6
			C86.5,95.9,86.4,96.1,86.2,96.3z"/>
	</g>
	<g>
		<g>
			<g>
				<path class="st1" d="M169.1,35.5c-0.3,0-0.6,0.1-0.8,0.4c-0.2,0.2-0.2,0.6-0.1,0.9L185,84.5c0.1,0.4,0.5,0.6,0.9,0.6h8
					c0.4,0,0.8-0.3,0.9-0.6l16.8-47.7c0.1-0.3,0.1-0.6-0.1-0.9c-0.2-0.3-0.5-0.4-0.8-0.4h-6.7c-0.4,0-0.8,0.3-0.9,0.6L189.9,74
					l-13.2-37.9c-0.1-0.4-0.5-0.6-0.9-0.6H169.1z"/>
				<path class="st1" d="M277.2,35.5c-0.3,0-0.6,0.2-0.8,0.5c-0.2,0.3-0.2,0.6,0,0.9l16.5,30.5v16.7c0,0.5,0.4,0.9,0.9,0.9h6.3
					c0.5,0,0.9-0.4,0.9-0.9V67.5L317.5,37c0.2-0.3,0.2-0.6,0-0.9c-0.2-0.3-0.5-0.5-0.8-0.5h-6.9c-0.3,0-0.7,0.2-0.8,0.5L297,58.8
					L284.9,36c-0.2-0.3-0.5-0.5-0.8-0.5H277.2z"/>
				<path class="st1" d="M244,76.2c9,0,16.2-7.3,16.2-16.2S253,43.8,244,43.8S227.8,51,227.8,60C227.7,69,235,76.2,244,76.2z
					 M244,84.8c13.7,0,24.8-11.2,24.8-24.8S257.6,35.2,244,35.2c-13.7,0-24.8,11.2-24.8,24.8S230.3,84.8,244,84.8z"/>
				<path class="st1" d="M398.9,34.9c-4,0-7.6,0.7-10.7,2.2c-3,1.4-5.5,3.4-7.6,5.9l0,0c-2,2.4-3.5,5.2-4.4,8.2l0,0
					c-0.9,3-1.4,6.1-1.4,9.3c0,3.2,0.5,6.2,1.4,9.3l0,0c1,3,2.5,5.7,4.4,8.2l0,0c2,2.4,4.5,4.4,7.5,5.8c3,1.5,6.6,2.2,10.6,2.2
					c4,0,7.7-0.8,11-2.6l0,0c3.3-1.8,5.9-4.4,7.9-7.8c2-3.5,3-7.7,3-12.7v-3.3c0-0.5-0.4-0.9-0.9-0.9h-20.2c-0.5,0-0.9,0.4-0.9,0.9
					v5.2c0,0.5,0.4,0.9,0.9,0.9h13c-0.4,3.8-1.7,6.8-3.9,9c-2.4,2.4-5.6,3.6-9.9,3.6c-2.6,0-4.8-0.5-6.8-1.4c-1.9-1-3.6-2.4-4.9-4
					c-1.3-1.7-2.3-3.6-2.9-5.8c-0.7-2.2-1-4.4-1-6.7c0-2.2,0.3-4.4,1-6.5l0,0c0.7-2.1,1.6-4,2.9-5.7l0,0c1.3-1.7,2.9-3,4.9-4.1
					c2-1,4.3-1.5,7-1.5c2.3,0,4.2,0.3,5.6,1l0,0c1.5,0.7,2.7,1.4,3.6,2.4l0,0c1,0.9,1.7,1.9,2.1,2.8l0,0c0.5,1,0.8,1.7,1,2.3l0.3,1
					c0.1,0.4,0.5,0.7,0.9,0.7h6.4c0.3,0,0.6-0.1,0.7-0.4c0.2-0.2,0.2-0.5,0.2-0.8l-0.3-1.1c-0.1-0.9-0.5-1.9-1-3.1
					c-0.5-1.3-1.2-2.6-2.2-4c-1-1.5-2.2-2.8-3.7-4.1c-1.6-1.3-3.5-2.3-5.8-3.1C404.6,35.3,402,34.9,398.9,34.9z"/>
				<path class="st1" d="M434.9,35.5c-0.5,0-0.9,0.4-0.9,0.9v47.7c0,0.5,0.4,0.9,0.9,0.9h30.6c0.5,0,0.9-0.4,0.9-0.9v-5.6
					c0-0.5-0.4-0.9-0.9-0.9h-23.3v-14h20c0.5,0,0.9-0.4,0.9-0.9v-5.6c0-0.5-0.4-0.9-0.9-0.9h-20V43h23c0.5,0,0.9-0.4,0.9-0.9v-5.6
					c0-0.5-0.4-0.9-0.9-0.9L434.9,35.5L434.9,35.5z"/>
				<path class="st1" d="M482,36.5c-0.5,0-0.9,0.4-0.9,0.9v47.7c0,0.5,0.4,0.9,0.9,0.9h6.3c0.5,0,0.9-0.4,0.9-0.9V66h7.2l11.3,19.5
					c0.2,0.3,0.5,0.5,0.8,0.5h7.2c0.3,0,0.6-0.2,0.8-0.5s0.2-0.7,0-0.9L505,65.1c1.9-0.6,3.6-1.6,5-2.8l0,0c1.7-1.5,2.9-3.2,3.7-5.1
					c0.8-1.9,1.2-3.9,1.2-6c0-2.5-0.6-4.9-1.8-7.1c-1.2-2.3-3-4.1-5.4-5.5c-2.4-1.4-5.4-2.1-9-2.1L482,36.5L482,36.5z M489.2,58.7
					V43.9h9.6c1.9,0,3.3,0.4,4.4,1.1c1.2,0.7,2,1.7,2.6,2.8l0,0c0.6,1.1,0.9,2.3,0.9,3.6c0,1.2-0.3,2.4-0.9,3.6
					c-0.6,1.1-1.4,2-2.6,2.7c-1.1,0.7-2.6,1.1-4.4,1.1L489.2,58.7z"/>
				<path class="st1" d="M340.1,35.5c-0.4,0-0.8,0.3-0.9,0.6l-16.8,47.7c-0.1,0.3-0.1,0.6,0.1,0.9c0.2,0.2,0.5,0.4,0.8,0.4h6.7
					c0.4,0,0.8-0.3,0.9-0.6l6-17c0-0.1,0-0.1,0-0.2l7.2-20.6l0.2,0.5l7.1,20.1c0,0.1,0,0.1,0,0.2l5.7,16.1l0.3,0.9
					c0.1,0.4,0.5,0.6,0.9,0.6h6.7c0.3,0,0.6-0.1,0.8-0.4c0.2-0.2,0.2-0.6,0.1-0.9l-16.8-47.7c-0.1-0.4-0.5-0.6-0.9-0.6H340.1z"/>
			</g>
		</g>
	</g>
</g>
</svg>
